<svg xmlns="http://www.w3.org/2000/svg" x="0px" y="0px"
width="50" height="50"
viewBox="0 0 172 172"
style=" fill:#000000;"><g fill="none" fill-rule="nonzero" stroke="none" stroke-width="1" stroke-linecap="butt" stroke-linejoin="miter" stroke-miterlimit="10" stroke-dasharray="" stroke-dashoffset="0" font-family="none" font-weight="none" font-size="none" text-anchor="none" style="mix-blend-mode: normal"><path d="M0,172v-172h172v172z" fill="none"></path><g fill="#333333"><path d="M6.88,24.08c-1.89978,0.00019 -3.43981,1.54022 -3.44,3.44v120.4c0.00019,1.89978 1.54022,3.43981 3.44,3.44h158.24c1.89978,-0.00019 3.43981,-1.54022 3.44,-3.44v-120.4c-0.00019,-1.89978 -1.54022,-3.43981 -3.44,-3.44zM10.32,30.96h151.36v113.52h-151.36zM72.18625,37.79297c-0.16665,0.00361 -0.33282,0.01933 -0.49719,0.04703h-13.20906c-1.89978,0.00019 -3.43981,1.54022 -3.44,3.44v10.32c-0.01754,1.24059 0.63425,2.39452 1.7058,3.01993c1.07155,0.62541 2.39684,0.62541 3.46839,0c1.07155,-0.62541 1.72335,-1.77935 1.7058,-3.01993v-6.88h6.88v12.73875c-2.15301,3.26259 -3.44,7.15766 -3.44,11.34125c0,11.35759 9.28241,20.64 20.64,20.64c11.35759,0 20.64,-9.28241 20.64,-20.64c0,-4.16519 -1.30238,-8.02777 -3.44,-11.28078v-12.79922h6.88c1.24059,0.01754 2.39452,-0.63425 3.01993,-1.7058c0.62541,-1.07155 0.62541,-2.39684 0,-3.46839c-0.62541,-1.07155 -1.77935,-1.72335 -3.01993,-1.7058h-9.74219c-0.37149,-0.0614 -0.75054,-0.0614 -1.12203,0h-26.445c-0.19315,-0.03228 -0.3887,-0.04802 -0.58453,-0.04703zM75.68,44.72h20.64v10.32h-20.64zM74.12125,61.92h23.77765c1.17481,2.02156 1.8611,4.3544 1.8611,6.88c0,7.63809 -6.12191,13.76 -13.76,13.76c-7.63809,0 -13.76,-6.12191 -13.76,-13.76c0,-2.5271 0.70408,-4.85743 1.88125,-6.88zM86,96.32c-12.63017,0 -21.31282,4.71162 -26.6264,9.48015c-5.31358,4.76854 -7.49813,9.80266 -7.49813,9.80266l6.32906,2.71437c0,0 1.49529,-3.56588 5.76469,-7.39734c4.2694,-3.83146 11.07287,-7.71985 22.03078,-7.71985c10.95791,0 17.76138,3.88838 22.03078,7.71985c4.2694,3.83146 5.76469,7.39734 5.76469,7.39734l6.32906,-2.71437c0,0 -2.18454,-5.03412 -7.49813,-9.80266c-5.31358,-4.76854 -13.99624,-9.48015 -26.6264,-9.48015zM27.52,123.84v13.76h24.08v-13.76zM58.48,123.84v13.76h24.08v-13.76zM89.44,123.84v13.76h24.08v-13.76zM120.4,123.84v13.76h24.08v-13.76z"></path></g></g></svg>