<svg xmlns="http://www.w3.org/2000/svg" x="0px" y="0px"
width="50" height="50"
viewBox="0 0 172 172"
style=" fill:#000000;"><g fill="none" fill-rule="nonzero" stroke="none" stroke-width="1" stroke-linecap="butt" stroke-linejoin="miter" stroke-miterlimit="10" stroke-dasharray="" stroke-dashoffset="0" font-family="none" font-weight="none" font-size="none" text-anchor="none" style="mix-blend-mode: normal"><path d="M0,172v-172h172v172z" fill="none"></path><g fill="#333333"><path d="M50.05469,20.64c-23.78437,0 -43.17469,19.10813 -43.17469,42.66406c0,12.12062 4.98531,22.81687 13.19563,30.50312l65.92437,65.85719l67.13375,-67.05313c7.48469,-7.39062 11.98625,-17.9525 11.98625,-29.30719c0,-7.06813 -1.85437,-13.74656 -4.71656,-19.565l-2.06937,-4.24625l-72.42813,69.90187l-42.61031,-42.61031c-2.71438,-2.71438 -2.71438,-7.01438 0,-9.72875c2.71437,-2.71438 7.01437,-2.71438 9.72875,0l33.06969,33.06969l62.4575,-60.32094l-3.42656,-2.39188c-0.16125,-0.12094 -0.43,-0.3225 -0.84656,-0.59125l-0.1075,-0.08062l-0.12094,-0.06719c-6.45,-3.57437 -13.85406,-6.03344 -22.10469,-6.03344c-15.22469,0 -28.20531,8.10281 -35.93188,19.72625c-7.72656,-11.85187 -20.76094,-19.72625 -35.95875,-19.72625zM50.05469,27.52c14.59313,0 26.96906,8.18344 32.84125,20.45188l3.06375,6.39625l3.1175,-6.36938c5.87219,-11.91906 18.32875,-20.47875 32.86813,-20.47875c5.53625,0 10.52156,1.54531 15.23812,3.68188l-51.02219,49.26187l-28.2725,-28.2725c-5.34812,-5.34812 -14.10937,-5.34812 -19.4575,0c-5.34812,5.34813 -5.34812,14.10938 0,19.4575l47.4075,47.4075l2.41875,-2.35156l67.67125,-65.33312c1.33031,3.80281 2.31125,7.76687 2.31125,11.9325c0,9.54062 -3.81625,18.3825 -9.94375,24.42937l-0.01344,0.01344l-62.28281,62.18875l-61.18094,-61.10031l-0.04031,-0.04031c-6.92031,-6.49031 -11.01875,-15.22469 -11.01875,-25.49094c0,-19.78 16.17875,-35.78406 36.29469,-35.78406z"></path></g></g></svg>