<svg xmlns="http://www.w3.org/2000/svg" x="0px" y="0px"
width="50" height="50"
viewBox="0 0 172 172"
style=" fill:#000000;"><g fill="none" fill-rule="nonzero" stroke="none" stroke-width="1" stroke-linecap="butt" stroke-linejoin="miter" stroke-miterlimit="10" stroke-dasharray="" stroke-dashoffset="0" font-family="none" font-weight="none" font-size="none" text-anchor="none" style="mix-blend-mode: normal"><path d="M0,172v-172h172v172z" fill="none"></path><g fill="#333333"><path d="M18.8125,1.34375c-9.675,0 -17.46875,7.79375 -17.46875,17.46875v18.8125v115.5625c0,9.675 7.79375,17.46875 17.46875,17.46875h134.375c9.675,0 17.46875,-7.79375 17.46875,-17.46875v-134.375c0,-9.675 -7.79375,-17.46875 -17.46875,-17.46875zM18.8125,9.40625h134.375c5.24062,0 9.40625,4.16563 9.40625,9.40625v20.15625h-153.1875v-20.15625c0,-5.24062 4.16563,-9.40625 9.40625,-9.40625zM24.1875,20.15625c-2.28438,0 -4.03125,1.74687 -4.03125,4.03125c0,2.28438 1.74687,4.03125 4.03125,4.03125h5.375c2.28438,0 4.03125,-1.74687 4.03125,-4.03125c0,-2.28438 -1.74687,-4.03125 -4.03125,-4.03125zM45.6875,20.15625c-2.28438,0 -4.03125,1.74687 -4.03125,4.03125c0,2.28438 1.74687,4.03125 4.03125,4.03125h5.375c2.28438,0 4.03125,-1.74687 4.03125,-4.03125c0,-2.28438 -1.74687,-4.03125 -4.03125,-4.03125zM9.40625,47.03125h153.1875v106.15625c0,5.24062 -4.16563,9.40625 -9.40625,9.40625h-134.375c-5.24062,0 -9.40625,-4.16563 -9.40625,-9.40625zM73.83801,75.01379c-1.64609,0 -3.29061,0.43882 -4.76874,1.31226c-2.6875,1.88125 -4.56928,4.97083 -4.56928,8.3302v40.3125c0,3.35938 1.88125,6.44947 4.70313,8.19635c1.47813,0.80625 3.09063,1.2099 4.70313,1.2099c1.6125,0 3.35938,-0.40312 4.70313,-1.34375l34.6698,-20.15625c2.95625,-1.74688 4.70313,-4.83697 4.70313,-8.19635c0,-3.35937 -1.88125,-6.58385 -4.70312,-8.19635l-34.6698,-20.15625c-1.47813,-0.87344 -3.12527,-1.31226 -4.77136,-1.31226zM73.90625,83.3125c0.13438,0 0.5375,-0.00053 0.67188,0.13385l34.6698,20.15625c0.40313,0.26875 0.67188,0.6724 0.67188,1.2099c0,0.5375 -0.26875,0.94115 -0.67187,1.2099l-34.6698,20.15625c-0.40313,0.26875 -0.9401,0.26875 -1.4776,0c-0.5375,-0.26875 -0.53803,-0.80678 -0.53803,-1.2099v-40.3125c0,-0.5375 0.26875,-0.94115 0.67188,-1.2099c0.26875,-0.13438 0.5375,-0.13385 0.67188,-0.13385z"></path></g></g></svg>