<svg xmlns="http://www.w3.org/2000/svg" x="0px" y="0px"
width="50" height="50"
viewBox="0 0 172 172"
style=" fill:#000000;"><g fill="none" fill-rule="nonzero" stroke="none" stroke-width="1" stroke-linecap="butt" stroke-linejoin="miter" stroke-miterlimit="10" stroke-dasharray="" stroke-dashoffset="0" font-family="none" font-weight="none" font-size="none" text-anchor="none" style="mix-blend-mode: normal"><path d="M0,172v-172h172v172z" fill="none"></path><g fill="#333333"><path d="M24.08,27.52c-7.71592,0 -13.76,6.04408 -13.76,13.76v75.68c0,2.53872 0.70541,4.86072 1.85437,6.88h-8.73437c-1.90232,0 -3.44,1.53768 -3.44,3.44c0,9.48408 7.71592,17.2 17.2,17.2h73.53672l0.52406,-6.88h-74.06078c-4.48576,0 -8.30803,-2.87584 -9.72875,-6.88h16.60875h67.71156l0.53078,-6.88h-68.24235c-3.92504,0 -6.88,-2.95496 -6.88,-6.88v-75.68c0,-3.92504 2.95496,-6.88 6.88,-6.88h123.84c3.92504,0 6.88,2.95496 6.88,6.88v65.36h6.88v-65.36c0,-7.71592 -6.04408,-13.76 -13.76,-13.76zM132.44,92.88c-8.50863,0 -15.48,6.97137 -15.48,15.48v5.16h-16.94469l-0.24188,3.17797l-3.45344,44.84766v0.13437c0,5.6587 4.6613,10.32 10.32,10.32h51.6c5.6587,0 10.32,-4.6613 10.32,-10.32v-0.13437l-3.69531,-48.02563h-16.94469v-5.16c0,-8.50863 -6.97137,-15.48 -15.48,-15.48zM132.44,99.76c4.79041,0 8.6,3.80959 8.6,8.6v5.16h-17.2v-5.16c0,-4.79041 3.80959,-8.6 8.6,-8.6zM106.38469,120.4h52.11063l3.17797,41.29344c-0.00846,1.93565 -1.49509,3.42656 -3.43328,3.42656h-51.6c-1.93819,0 -3.42482,-1.49091 -3.43328,-3.42656z"></path></g></g></svg>