<svg xmlns="http://www.w3.org/2000/svg" x="0px" y="0px"
width="50" height="50"
viewBox="0 0 172 172"
style=" fill:#000000;"><g fill="none" fill-rule="nonzero" stroke="none" stroke-width="1" stroke-linecap="butt" stroke-linejoin="miter" stroke-miterlimit="10" stroke-dasharray="" stroke-dashoffset="0" font-family="none" font-weight="none" font-size="none" text-anchor="none" style="mix-blend-mode: normal"><path d="M0,172v-172h172v172z" fill="none"></path><g fill="#333333"><path d="M83.67993,13.53198l-18.46607,19.78882l18.46607,19.79932l7.86304,-7.33813l-7.32764,-7.85254c25.01868,1.83387 44.65869,22.57148 44.65869,48.07056c0,26.71121 -21.53781,48.24903 -48.24902,48.24902l-75.2605,0.12598l0.021,10.75l75.2395,-0.12598c32.52129,0 58.99902,-26.47773 58.99902,-58.99902c0,-30.84987 -23.83456,-56.21652 -54.04394,-58.74707l5.96289,-6.38281zM52.02832,34.4021c-18.75875,10.37375 -30.42334,30.15165 -30.42334,51.5979c0,14.24375 5.11297,27.4125 13.60547,37.625h15.21167c-11.01875,-8.86875 -18.06714,-22.41375 -18.06714,-37.625c0,-17.5225 9.57212,-33.69915 24.89087,-42.19165zM152.82007,119.96118l-7.86304,7.32764l6.61377,7.08618h-20.58667c-3.92375,4.13875 -8.32705,7.74 -13.16455,10.75h33.75122l-6.61377,7.08618l7.86304,7.32764l18.46607,-19.78882z"></path></g></g></svg>