<svg xmlns="http://www.w3.org/2000/svg" x="0px" y="0px"
width="50" height="50"
viewBox="0 0 172 172"
style=" fill:#000000;"><g fill="none" fill-rule="nonzero" stroke="none" stroke-width="1" stroke-linecap="butt" stroke-linejoin="miter" stroke-miterlimit="10" stroke-dasharray="" stroke-dashoffset="0" font-family="none" font-weight="none" font-size="none" text-anchor="none" style="mix-blend-mode: normal"><path d="M0,172v-172h172v172z" fill="none"></path><g fill="#333333"><path d="M79.12,6.88c-39.85724,0 -72.24,32.38276 -72.24,72.24v3.44h75.68v-3.44v-72.24zM75.68,14.10266v61.57734h-61.57734c1.75967,-33.33766 28.23968,-59.81767 61.57734,-61.57734zM92.88,20.64c-1.16272,0 -2.29104,0.11965 -3.44,0.17469v6.88c1.14552,-0.06192 2.27728,-0.17469 3.44,-0.17469c36.04088,0 65.36,29.31912 65.36,65.36c0,36.04088 -29.31912,65.36 -65.36,65.36c-36.04088,0 -65.36,-29.31912 -65.36,-65.36c0,-1.16272 0.11277,-2.29448 0.17469,-3.44h-6.88c-0.05504,1.14896 -0.17469,2.27728 -0.17469,3.44c0,39.8352 32.4048,72.24 72.24,72.24c39.8352,0 72.24,-32.4048 72.24,-72.24c0,-39.8352 -32.4048,-72.24 -72.24,-72.24z"></path></g></g></svg>