<svg xmlns="http://www.w3.org/2000/svg" x="0px" y="0px"
width="16" height="16"
viewBox="0 0 172 172"
style=" fill:#000000;"><g fill="none" fill-rule="nonzero" stroke="none" stroke-width="1" stroke-linecap="butt" stroke-linejoin="miter" stroke-miterlimit="10" stroke-dasharray="" stroke-dashoffset="0" font-family="none" font-weight="none" font-size="none" text-anchor="none" style="mix-blend-mode: normal"><path d="M0,172v-172h172v172z" fill="none"></path><g fill="#333333"><path d="M86,3.44c-3.69531,0 -7.37719,0.36281 -10.32,1.075c-1.47812,0.34938 -2.67406,0.73906 -3.87,1.3975c-0.60469,0.3225 -1.23625,0.7525 -1.8275,1.3975c-0.30906,0.34938 -0.63156,0.84656 -0.86,1.3975c-2.17687,0.47031 -4.34031,1.075 -6.45,1.72c-1.62594,-0.65844 -7.12187,-2.76812 -14.62,-3.225c-1.10187,-0.06719 -2.2575,-0.12094 -3.44,-0.1075c-8.23719,0.12094 -17.9525,2.58 -26.445,11.0725c-18.08687,18.08688 -9.05687,41.495 -7.74,44.6125c-0.63156,2.08281 -1.24969,4.1925 -1.72,6.3425c-0.55094,0.22844 -1.04812,0.55094 -1.3975,0.86c-0.645,0.59125 -1.075,1.22281 -1.3975,1.8275c-0.65844,1.19594 -1.04812,2.39188 -1.3975,3.87c-0.71219,2.94281 -1.075,6.62469 -1.075,10.32c0,3.69531 0.36281,7.37719 1.075,10.32c0.34938,1.47813 0.73906,2.67406 1.3975,3.87c0.3225,0.60469 0.7525,1.23625 1.3975,1.8275c0.34938,0.30906 0.84656,0.63156 1.3975,0.86c0.47031,2.16344 1.075,4.24625 1.72,6.3425c-1.31687,3.1175 -10.34687,26.52563 7.74,44.6125c18.08688,18.08688 41.495,9.05688 44.6125,7.74c2.0425,0.63156 4.12531,1.15563 6.235,1.6125c0.22844,0.61813 0.63156,1.12875 0.9675,1.505c0.59125,0.645 1.22281,1.075 1.8275,1.3975c1.19594,0.65844 2.39188,1.04813 3.87,1.3975c2.94281,0.71219 6.62469,1.075 10.32,1.075c3.69531,0 7.37719,-0.36281 10.32,-1.075c1.47813,-0.34937 2.67406,-0.73906 3.87,-1.3975c0.60469,-0.3225 1.23625,-0.7525 1.8275,-1.3975c0.30906,-0.34937 0.63156,-0.84656 0.86,-1.3975c2.15,-0.47031 4.25969,-1.075 6.3425,-1.72c3.1175,1.31688 26.52563,10.34688 44.6125,-7.74c17.89875,-17.89875 9.20469,-40.98437 7.74,-44.505c0.65844,-2.10969 1.24969,-4.25969 1.72,-6.45c0.55094,-0.22844 1.04813,-0.55094 1.3975,-0.86c0.645,-0.59125 1.075,-1.22281 1.3975,-1.8275c0.65844,-1.19594 1.04813,-2.39187 1.3975,-3.87c0.71219,-2.94281 1.075,-6.62469 1.075,-10.32c0,-3.69531 -0.36281,-7.37719 -1.075,-10.32c-0.34937,-1.47812 -0.73906,-2.67406 -1.3975,-3.87c-0.3225,-0.60469 -0.7525,-1.23625 -1.3975,-1.8275c-0.34937,-0.30906 -0.84656,-0.63156 -1.3975,-0.86c-0.47031,-2.16344 -1.075,-4.24625 -1.72,-6.3425c1.31688,-3.1175 10.34688,-26.52562 -7.74,-44.6125c-8.4925,-8.4925 -18.20781,-10.95156 -26.445,-11.0725c-1.1825,-0.01344 -2.33812,0.04031 -3.44,0.1075c-7.67281,0.45688 -13.27625,2.63375 -14.7275,3.225c-2.06937,-0.63156 -4.1925,-1.24969 -6.3425,-1.72c-0.22844,-0.55094 -0.55094,-1.04812 -0.86,-1.3975c-0.59125,-0.645 -1.22281,-1.075 -1.8275,-1.3975c-1.19594,-0.65844 -2.39187,-1.04812 -3.87,-1.3975c-2.94281,-0.71219 -6.62469,-1.075 -10.32,-1.075zM86,10.32c3.18469,0 6.38281,0.3225 8.6,0.86c0.80625,0.20156 1.29,0.47031 1.72,0.645v33.325c-0.5375,0.87344 -0.645,1.935 -0.3225,2.9025c-1.075,-0.37625 -3.96406,-1.29 -9.9975,-1.29c-6.38281,0 -9.29875,1.075 -10.2125,1.3975c0.36281,-0.90031 0.3225,-1.92156 -0.1075,-2.795v-32.035c0.36281,-0.51062 0.59125,-1.10187 0.645,-1.72c0.3225,-0.14781 0.56438,-0.30906 1.075,-0.43c2.21719,-0.5375 5.41531,-0.86 8.6,-0.86zM45.0425,13.8675c2.6875,-0.04031 5.14656,0.13438 7.31,0.5375c-16.62219,7.83406 -30.11344,21.21781 -37.9475,37.84c-1.38406,-7.61906 -1.1825,-19.2425 8.7075,-29.1325c7.12188,-7.12187 15.14406,-9.15094 21.93,-9.245zM124.1625,13.8675c7.29656,-0.47031 16.59531,1.11531 24.725,9.245c9.94375,9.94375 10.11844,21.62094 8.7075,29.24c-7.82062,-16.60875 -21.23125,-30.11344 -37.84,-37.9475c1.35719,-0.24187 2.83531,-0.43 4.4075,-0.5375zM68.8,15.8025v28.9175c-10.8575,4.52844 -19.44406,13.2225 -23.9725,24.08h-29.025c6.36938,-26.08219 26.91531,-46.62812 52.9975,-52.9975zM103.2,15.91c26.04188,6.36938 46.52063,26.84813 52.89,52.89h-28.81c-4.52844,-10.8575 -13.2225,-19.43062 -24.08,-23.9725zM69.875,51.815c1.22281,1.94844 3.37281,3.225 5.805,3.225c0.44344,0.01344 0.87344,-0.06719 1.29,-0.215c0,0 2.62031,-1.1825 9.03,-1.1825c6.40969,0 9.03,1.1825 9.03,1.1825c0.41656,0.14781 0.84656,0.22844 1.29,0.215c2.43219,0 4.58219,-1.27656 5.805,-3.225c7.92813,3.74906 14.31094,10.13188 18.06,18.06c-1.94844,1.22281 -3.225,3.37281 -3.225,5.805c-0.01344,0.44344 0.06719,0.87344 0.215,1.29c0,0 1.1825,2.62031 1.1825,9.03c0,6.40969 -1.1825,9.03 -1.1825,9.03c-0.14781,0.41656 -0.22844,0.84656 -0.215,1.29c0,2.43219 1.27656,4.58219 3.225,5.805c-3.74906,7.91469 -10.11844,14.32438 -18.06,18.06c-1.22281,-1.94844 -3.37281,-3.225 -5.805,-3.225c-0.44344,-0.01344 -0.87344,0.06719 -1.29,0.215c0,0 -2.62031,1.1825 -9.03,1.1825c-6.40969,0 -9.03,-1.1825 -9.03,-1.1825c-0.41656,-0.14781 -0.84656,-0.22844 -1.29,-0.215c-2.45906,0 -4.58219,1.34375 -5.805,3.3325c-7.90125,-3.74906 -14.32437,-10.23937 -18.06,-18.1675c1.94844,-1.22281 3.225,-3.37281 3.225,-5.805c0.01344,-0.44344 -0.06719,-0.87344 -0.215,-1.29c0,0 -1.1825,-2.62031 -1.1825,-9.03c0,-6.40969 1.1825,-9.03 1.1825,-9.03c0.14781,-0.41656 0.22844,-0.84656 0.215,-1.29c0,-2.39187 -1.22281,-4.56875 -3.1175,-5.805c3.73563,-7.91469 10.02438,-14.32437 17.9525,-18.06zM12.3625,75.68h35.7975c-0.29562,0.83313 -1.3975,3.78938 -1.3975,10.32c0,6.03344 0.91375,8.9225 1.29,9.9975c-0.51062,-0.20156 -1.06156,-0.26875 -1.6125,-0.215c-0.5375,0.05375 -1.04812,0.24188 -1.505,0.5375h-33.11c-0.17469,-0.43 -0.44344,-0.91375 -0.645,-1.72c-0.5375,-2.21719 -0.86,-5.41531 -0.86,-8.6c0,-3.18469 0.3225,-6.38281 0.86,-8.6c0.18813,-0.76594 0.47031,-1.20937 0.645,-1.6125c0.18813,-0.02687 0.36281,-0.05375 0.5375,-0.1075zM123.84,75.68h36.335c0.17469,0.43 0.44344,0.91375 0.645,1.72c0.5375,2.21719 0.86,5.41531 0.86,8.6c0,3.18469 -0.3225,6.38281 -0.86,8.6c-0.14781,0.60469 -0.26875,0.94063 -0.43,1.29c-0.1075,0 -0.215,0 -0.3225,0c-0.45687,0.05375 -0.88687,0.20156 -1.29,0.43h-34.9375c0.29563,-0.83312 1.3975,-3.78937 1.3975,-10.32c0,-6.53062 -1.10187,-9.48687 -1.3975,-10.32zM15.91,103.2h28.9175c4.52844,10.83063 13.12844,19.44406 23.9725,23.9725v28.9175c-26.04187,-6.38281 -46.52062,-26.83469 -52.89,-52.89zM127.1725,103.2h29.025c-6.36937,26.09563 -26.90187,46.62813 -52.9975,52.9975v-28.9175c10.83063,-4.54187 19.44406,-13.23594 23.9725,-24.08zM157.595,119.6475c1.41094,7.61906 1.23625,19.29625 -8.7075,29.24c-9.94375,9.94375 -21.62094,10.11844 -29.24,8.7075c16.64906,-7.83406 30.1,-21.32531 37.9475,-37.9475zM14.405,119.755c7.8475,16.59531 21.32531,30.03281 37.9475,37.84c-7.61906,1.41094 -19.29625,1.23625 -29.24,-8.7075c-9.89,-9.89 -10.09156,-21.51344 -8.7075,-29.1325zM96.32,123.84c-0.28219,0.76594 -0.28219,1.59906 0,2.365v32.7875c-0.18812,0.40313 -0.29562,0.84656 -0.3225,1.29c-0.37625,0.16125 -0.73906,0.37625 -1.3975,0.5375c-2.21719,0.5375 -5.41531,0.86 -8.6,0.86c-3.18469,0 -6.38281,-0.3225 -8.6,-0.86c-0.60469,-0.14781 -0.94062,-0.26875 -1.29,-0.43c-0.01344,-0.56437 -0.16125,-1.11531 -0.43,-1.6125v-31.605c0.67188,-0.94062 0.83313,-2.15 0.43,-3.225c1.14219,0.38969 4.00438,1.29 9.89,1.29c6.53063,0 9.48688,-1.10187 10.32,-1.3975z"></path></g></g></svg>