<svg xmlns="http://www.w3.org/2000/svg" x="0px" y="0px"
width="50" height="50"
viewBox="0 0 172 172"
style=" fill:#000000;"><g fill="none" fill-rule="nonzero" stroke="none" stroke-width="1" stroke-linecap="butt" stroke-linejoin="miter" stroke-miterlimit="10" stroke-dasharray="" stroke-dashoffset="0" font-family="none" font-weight="none" font-size="none" text-anchor="none" style="mix-blend-mode: normal"><path d="M0,172v-172h172v172z" fill="none"></path><g fill="#333333"><path d="M34.4,2.0425l-2.4725,2.365l-24.08,24.08c-1.37062,1.37063 -1.37062,3.57438 0,4.945c1.37063,1.37063 3.57438,1.37063 4.945,0l18.1675,-18.1675v36.335c0,29.24 22.81688,53.02438 51.6,54.825v65.575h6.88v-65.6825c28.76969,-1.81406 51.6,-25.49094 51.6,-54.7175v-36.335l18.1675,18.1675c1.37063,1.37063 3.57438,1.37063 4.945,0c1.37063,-1.37062 1.37063,-3.57437 0,-4.945l-24.08,-24.08l-2.4725,-2.365l-2.4725,2.365l-24.08,24.08c-1.37062,1.37063 -1.37062,3.57438 0,4.945c1.37063,1.37063 3.57438,1.37063 4.945,0l18.1675,-18.1675v36.335c0,26.70031 -21.45969,48.16 -48.16,48.16c-26.70031,0 -48.16,-21.45969 -48.16,-48.16v-36.335l18.1675,18.1675c1.37063,1.37063 3.57438,1.37063 4.945,0c1.37063,-1.37062 1.37063,-3.57437 0,-4.945l-24.08,-24.08z"></path></g></g></svg>