<?xml version="1.0" encoding="UTF-8" standalone="no"?><!-- Generator: Gravit.io --><svg xmlns="http://www.w3.org/2000/svg" xmlns:xlink="http://www.w3.org/1999/xlink" style="isolation:isolate" viewBox="0 0 50 50" width="50pt" height="50pt"><defs><clipPath id="_clipPath_wSHNdyci6Rsu8PsRjvrR9K8eFeB4JPgr"><rect width="50" height="50"/></clipPath></defs><g clip-path="url(#_clipPath_wSHNdyci6Rsu8PsRjvrR9K8eFeB4JPgr)"><rect width="50" height="50" style="fill:rgb(0,0,0)" fill-opacity="0"/><g><path d=" M 0 50 L 0 0 L 50 0 L 50 50 L 0 50 Z " fill="none"/><g><path d=" M 3 8 C 2.735 8 2.48 8.106 2.293 8.293 C 2.105 8.48 2 8.735 2 9 L 2 26.268 C 2.294 26.097 2.636 26 3 26 L 4 26 L 4 10 L 46 10 L 46 44 L 30 44 L 30 45 C 30 45.364 29.903 45.706 29.732 46 L 47 46 C 47.265 46 47.52 45.895 47.707 45.707 C 47.895 45.52 48 45.265 48 45 L 48 9 C 48 8.735 47.895 8.481 47.707 8.293 C 47.52 8.105 47.265 8 47 8 L 3 8 Z  M 3 28 C 2.448 28 2 28.448 2 29 L 2 45 C 2 45.552 2.448 46 3 46 L 27 46 C 27.552 46 28 45.552 28 45 L 28 29 C 28 28.448 27.552 28 27 28 L 3 28 Z  M 4 30 L 26 30 L 26 44 L 4 44 L 4 30 Z " fill="rgb(51,51,51)"/><path d=" M 3 8 C 2.735 8 2.48 8.106 2.293 8.293 C 2.105 8.48 2 8.735 2 9 L 2 26.268 C 2.294 26.097 2.636 26 3 26 L 4 26 L 4 10 L 46 10 L 46 44 L 30 44 L 30 45 C 30 45.364 29.903 45.706 29.732 46 L 47 46 C 47.265 46 47.52 45.895 47.707 45.707 C 47.895 45.52 48 45.265 48 45 L 48 9 C 48 8.735 47.895 8.481 47.707 8.293 C 47.52 8.105 47.265 8 47 8 L 3 8 Z  M 3 28 C 2.448 28 2 28.448 2 29 L 2 45 C 2 45.552 2.448 46 3 46 L 27 46 C 27.552 46 28 45.552 28 45 L 28 29 C 28 28.448 27.552 28 27 28 L 3 28 Z  M 4 30 L 26 30 L 26 44 L 4 44 L 4 30 Z " fill="rgb(51,51,51)"/><path d=" M 29.749 27 C 30.009 26.995 30.257 26.89 30.441 26.706 L 40.863 16.544 L 40.818 20.13 C 40.808 20.49 40.993 20.828 41.302 21.014 C 41.612 21.199 41.997 21.204 42.311 21.026 C 42.624 20.849 42.818 20.516 42.818 20.155 L 42.906 13.155 L 35.907 13.067 C 35.546 13.057 35.208 13.242 35.023 13.552 C 34.837 13.861 34.832 14.246 35.01 14.56 C 35.188 14.874 35.521 15.067 35.881 15.067 L 39.467 15.112 L 29.045 25.274 C 28.745 25.558 28.651 25.996 28.807 26.378 C 28.963 26.76 29.337 27.007 29.749 27 L 29.749 27 Z " fill="rgb(51,51,51)"/></g></g></g></svg>