<svg xmlns="http://www.w3.org/2000/svg" x="0px" y="0px"
width="50" height="50"
viewBox="0 0 172 172"
style=" fill:#000000;"><g fill="none" fill-rule="nonzero" stroke="none" stroke-width="1" stroke-linecap="butt" stroke-linejoin="miter" stroke-miterlimit="10" stroke-dasharray="" stroke-dashoffset="0" font-family="none" font-weight="none" font-size="none" text-anchor="none" style="mix-blend-mode: normal"><path d="M0,172v-172h172v172z" fill="none"></path><g fill="#333333"><path d="M41.28,10.32c-17.05219,0 -30.96,13.90781 -30.96,30.96c0,17.05219 13.90781,30.96 30.96,30.96c17.05219,0 30.96,-13.90781 30.96,-30.96c0,-17.05219 -13.90781,-30.96 -30.96,-30.96zM106.64,13.76c-1.89469,0 -3.44,1.54531 -3.44,3.44v48.16c0,1.89469 1.54531,3.44 3.44,3.44h48.16c1.89469,0 3.44,-1.54531 3.44,-3.44v-48.16c0,-1.89469 -1.54531,-3.44 -3.44,-3.44zM41.28,17.2c13.34344,0 24.08,10.73656 24.08,24.08c0,13.34344 -10.73656,24.08 -24.08,24.08c-13.34344,0 -24.08,-10.73656 -24.08,-24.08c0,-13.34344 10.73656,-24.08 24.08,-24.08zM110.08,20.64h41.28v41.28h-41.28zM113.72156,96.32c-1.51844,0 -2.84875,0.98094 -3.30563,2.41875l-10.49469,34.02375c-0.43,1.37063 0.04031,2.87563 1.1825,3.74906l27.52,21.02969c1.23625,0.94063 2.95625,0.94063 4.1925,0l27.52,-21.02969c1.14219,-0.87344 1.6125,-2.37844 1.1825,-3.74906l-10.49469,-34.02375c-0.45688,-1.43781 -1.78719,-2.41875 -3.30563,-2.41875zM41.11875,99.76c-1.1825,0.06719 -2.24406,0.71219 -2.83531,1.73344l-27.50656,48.16c-0.61813,1.06156 -0.60469,2.37844 0,3.44c0.61812,1.06156 1.76031,1.70656 2.98312,1.70656h55.04c1.22281,0 2.365,-0.645 2.98313,-1.70656c0.60469,-1.06156 0.61812,-2.37844 0.01344,-3.44l-27.52,-48.16c-0.645,-1.12875 -1.86781,-1.78719 -3.15781,-1.73344zM116.24781,103.2h28.94437l9.05688,29.29375l-23.52906,17.97938l-23.52906,-17.97938zM41.28,110.13375l21.59406,37.78625h-43.17469z"></path></g></g></svg>