<svg xmlns="http://www.w3.org/2000/svg" x="0px" y="0px"
width="50" height="50"
viewBox="0 0 172 172"
style=" fill:#000000;"><g fill="none" fill-rule="nonzero" stroke="none" stroke-width="1" stroke-linecap="butt" stroke-linejoin="miter" stroke-miterlimit="10" stroke-dasharray="" stroke-dashoffset="0" font-family="none" font-weight="none" font-size="none" text-anchor="none" style="mix-blend-mode: normal"><path d="M0,172v-172h172v172z" fill="none"></path><g fill="#333333"><path d="M89.44,6.88c-43.68531,0 -60.54937,28.20531 -61.92,55.04v23.005c-2.40531,2.75469 -3.44,6.27531 -3.44,10.75c0,7.91469 5.11969,14.405 12.685,16.125c8.94938,23.39469 23.78438,53.32 49.235,53.32c13.76,0 24.42938,-8.94937 32.68,-20.64h-8.9225c-7.56531,9.28531 -15.48,13.76 -24.08,13.76c-16.51469,0 -30.67781,-16.555 -43.7525,-50.955l-0.645,-2.0425l-2.0425,-0.3225c-4.47469,0 -8.2775,-4.085 -8.2775,-9.245c0,-2.01562 0.37625,-3.70875 0.9675,-5.0525l11.2875,5.375c1.075,0.52406 2.33813,0.45688 3.34594,-0.18812c0.99438,-0.63156 1.6125,-1.73344 1.59906,-2.92938v-24.6175c2.37844,-0.16125 8.64031,-0.40312 19.0275,-2.9025c10.92469,-2.62031 23.52906,-7.31 32.25,-15.695c9.23156,12.16094 21.16406,16.8775 24.4025,17.9525v25.2625c-0.01344,1.19594 0.60469,2.29781 1.59906,2.92938c1.00781,0.645 2.27094,0.71219 3.34594,0.18812l5.375,-2.6875v11.395c-0.55094,0.12094 -1.14219,0.215 -1.72,0.215l-2.0425,0.3225l-0.7525,2.0425c-3.44,8.94938 -6.88,16.58188 -10.32,23.1125c4.12531,-0.68531 7.99531,-2.39187 10.75,-5.4825c2.06938,-4.47469 3.7625,-8.98969 5.4825,-13.115c0.68531,-0.17469 1.35719,-0.45687 2.0425,-0.7525v2.4725c0,11.59656 -9.04344,20.64 -20.64,20.64h-14.405c-1.43781,-3.9775 -5.22719,-6.88 -9.675,-6.88h-6.88c-5.65719,0 -10.32,4.66281 -10.32,10.32c0,5.65719 4.66281,10.32 10.32,10.32h6.88c4.44781,0 8.23719,-2.9025 9.675,-6.88h14.405c15.23813,0 27.52,-12.28187 27.52,-27.52v-3.44c5.65719,0 10.32,-4.66281 10.32,-10.32v-13.76c0,-5.65719 -4.66281,-10.32 -10.32,-10.32v-13.76c-1.37062,-30.27469 -18.20781,-47.47469 -46.7625,-48.16l-6.88,-6.88zM88.0425,13.76l6.88,6.88h1.3975c34.4,0 40.59469,25.8 41.28,41.28v13.76c-0.1075,0 -0.215,0 -0.3225,0c-1.77375,0.16125 -3.13094,1.65281 -3.1175,3.44v6.45l-3.44,1.72v-21.93c0.01344,-1.54531 -0.99437,-2.9025 -2.4725,-3.3325c0,0 -17.14625,-5.38844 -25.585,-19.135c-0.68531,-1.10187 -1.935,-1.72 -3.225,-1.6125c-0.92719,0.09406 -1.78719,0.55094 -2.365,1.29c-6.85312,8.22375 -19.90094,13.37031 -31.39,16.125c-11.48906,2.75469 -21.1775,3.225 -21.1775,3.225c-1.81406,0.1075 -3.225,1.62594 -3.225,3.44v22.0375l-7.2025,-3.44v-22.0375c2.06938,-34.74937 28.85031,-47.81062 53.965,-48.16zM141.04,82.56h3.44c1.90813,0 3.44,1.53188 3.44,3.44v13.76c0,1.90813 -1.53187,3.44 -3.44,3.44h-2.795c-0.215,-0.05375 -0.43,-0.09406 -0.645,-0.1075v-14.9425c0.05375,-0.36281 0.05375,-0.71219 0,-1.075zM86,134.16h6.88c1.90813,0 3.44,1.53188 3.44,3.44c0,1.90813 -1.53187,3.44 -3.44,3.44h-6.88c-1.90812,0 -3.44,-1.53187 -3.44,-3.44c0,-1.90812 1.53188,-3.44 3.44,-3.44z"></path></g></g></svg>