<svg xmlns="http://www.w3.org/2000/svg" x="0px" y="0px"
width="64" height="64"
viewBox="0 0 172 172"
style=" fill:#000000;"><g fill="none" fill-rule="nonzero" stroke="none" stroke-width="1" stroke-linecap="butt" stroke-linejoin="miter" stroke-miterlimit="10" stroke-dasharray="" stroke-dashoffset="0" font-family="none" font-weight="none" font-size="none" text-anchor="none" style="mix-blend-mode: normal"><path d="M0,172v-172h172v172z" fill="none"></path><g fill="#333333"><path d="M17.2,6.88c-5.65719,0 -10.32,4.66281 -10.32,10.32v103.2c0,5.65719 4.66281,10.32 10.32,10.32h48.16v6.88h-30.96c-0.1075,0 -0.215,0 -0.3225,0c-0.92719,0.09406 -1.78719,0.55094 -2.365,1.29l-17.2,20.64c-0.83312,1.03469 -0.99437,2.44563 -0.41656,3.64156c0.57781,1.19594 1.78719,1.94844 3.10406,1.94844h137.6c1.31688,0 2.52625,-0.7525 3.10406,-1.94844c0.57781,-1.19594 0.41656,-2.60688 -0.41656,-3.64156l-17.2,-20.64c-0.65844,-0.81969 -1.63937,-1.29 -2.6875,-1.29h-30.96v-6.88h48.16c5.65719,0 10.32,-4.66281 10.32,-10.32v-103.2c0,-5.65719 -4.66281,-10.32 -10.32,-10.32zM17.2,13.76h137.6c1.90813,0 3.44,1.53188 3.44,3.44v103.2c0,1.90813 -1.53187,3.44 -3.44,3.44h-137.6c-1.90812,0 -3.44,-1.53187 -3.44,-3.44v-103.2c0,-1.90812 1.53188,-3.44 3.44,-3.44zM20.64,20.64v96.32h130.72v-96.32zM27.52,27.52h116.96v82.56h-116.96zM66.3275,38.8075l-27.52,27.52l-2.365,2.4725l2.365,2.4725l27.52,27.52l4.945,-4.945l-25.0475,-25.0475l25.0475,-25.0475zM105.6725,38.8075l-4.945,4.945l25.0475,25.0475l-25.0475,25.0475l4.945,4.945l27.52,-27.52l2.365,-2.4725l-2.365,-2.4725zM72.24,130.72h27.52v13.76h-27.52zM36.0125,144.48h29.3475v6.88h41.28v-6.88h29.3475l11.5025,13.76h-122.98z"></path></g></g></svg>