<svg width="382" height="322" viewBox="0 0 382 322" fill="none" xmlns="http://www.w3.org/2000/svg">
<path d="M308.726 130.45L308.126 126.46C308.016 125.674 308.076 124.873 308.306 124.114C308.536 123.354 308.928 122.653 309.456 122.06C305.122 111.506 296.038 117.552 297.34 126.812C297.504 127.984 296.616 128.612 294.828 126.612C291.61 123.028 287.456 129.012 293.954 133.678C296.536 144.014 294.03 144.508 291.598 142.38C295.042 145.67 298.9 149.484 303.452 148.308C303.208 146.694 303.232 145.05 303.528 143.444L303.3 143.33C306.91 144.204 311.7 143.672 311.66 134.476C310.878 134.098 310.2 133.533 309.688 132.831C309.176 132.129 308.846 131.311 308.726 130.45Z" fill="#4395FD"/>
<path d="M371.8 75.356C372.532 72.827 373 70.2291 373.2 67.6039C373.694 60.7639 371.908 59.586 370.122 67.108H370.084C370.274 65.74 370.426 64.2219 370.54 62.5879C370.882 56.3879 369.362 54.9879 367.614 61.8659C367.172 63.6761 366.638 65.4626 366.014 67.218C366.088 65.9418 366.088 64.6622 366.014 63.386C365.52 56.014 363.772 56.5079 362.594 62.8539C362.066 65.8327 361.356 68.7764 360.466 71.668C360.256 71.1606 360.014 70.6662 359.744 70.188C355.678 63.044 354.344 63.232 355.982 71.402C357.382 78.318 352.6 87.134 352.6 87.134C357.546 89.1052 361.8 92.4886 364.836 96.862C364.836 96.862 372.132 84.9679 373.88 76.9499C375.362 70.0339 372.74 73.15 371.8 75.356Z" fill="#4395FD"/>
<path d="M240.822 64.522C244.052 60.646 248.422 54.832 246.978 53.236C245.238 51.348 240.59 55.896 236.836 58.236C234.154 59.91 232.27 60.758 231.248 54.108C230.83 51.41 229.424 42.252 229.31 41.34C228.17 33.018 225.358 34.424 225.396 41.758C225.426 47.142 225.406 51.434 225.396 53.124C224.062 48.9 221.11 39.548 220.876 38.756C218.444 30.7 215.898 32.524 217.076 39.782C218.09 45.938 219.202 53.506 219.436 55.096C218.272 52.622 216.436 48.474 214.492 43.202C211.604 35.298 209.438 37.274 210.768 44.532C211.708 49.59 212.814 54.628 213.42 56.966C212.024 54.6732 210.796 52.283 209.742 49.814C206.436 42.014 204.384 44.152 206.208 51.562C207.076 55.034 209.194 61.456 211.376 69.194C212.63 73.676 216.926 85.722 220.65 91.394C227.604 91.774 239.914 84.55 242.916 78.28C242.804 78.014 240.14 72.736 239.99 72.51C239.312 71.2484 239.03 69.8124 239.178 68.388C239.326 66.9638 239.898 65.6168 240.822 64.522Z" fill="#4395FD"/>
<path d="M126.942 90.4359C117.29 85.9999 102.698 66.8779 100 72.0459C98.6001 74.7059 116.682 108.676 118.05 113.616C124.238 109.533 131.29 106.944 138.65 106.054C136.174 101.228 136.554 94.8819 126.942 90.4359Z" fill="#4395FD"/>
<path d="M90.69 171.412C88.1888 171.076 85.646 171.23 83.204 171.868C72.868 174.298 50.526 168.106 50.678 173.92C50.792 177.756 90.12 193.376 91.716 194.97C93.8274 188.28 97.3818 182.136 102.128 176.97C98.6 175.326 95.744 172.21 90.69 171.412Z" fill="#4395FD"/>
<path d="M293.908 74.8579C286.27 49.2079 271.944 45.4079 272.508 64.7499C272.742 74.8873 274.882 84.8899 278.816 94.2359C264.49 65.0519 259.702 85.6479 268.176 103.394C272.706 113.484 279.174 122.586 287.214 130.182C291.508 134.326 294.434 136.908 294.964 141.468C295.06 138.832 294.714 136.199 293.94 133.678C287.442 129.006 291.584 123 294.814 126.612C296.614 128.578 297.478 127.948 297.32 126.756C296.13 117.85 304.814 111.256 309.366 122.156C309.84 121.552 310.452 121.071 311.152 120.756C309.8 46.1299 290.868 61.8619 293.908 74.8579Z" fill="black"/>
<path d="M342.014 15.7999C338.928 15.9913 335.97 17.0935 333.512 18.9667C331.052 20.8399 329.204 23.4001 328.2 26.3237C327.198 29.2473 327.084 32.4027 327.872 35.3911C328.662 38.3795 330.32 41.0665 332.638 43.1125C334.954 45.1585 337.826 46.4713 340.89 46.8851C343.952 47.2991 347.07 46.7953 349.846 45.4375C352.624 44.0797 354.936 41.9289 356.49 39.2573C358.044 36.5857 358.772 33.5129 358.58 30.4279C358.454 28.3791 357.926 26.3751 357.026 24.5307C356.124 22.6863 354.868 21.0375 353.33 19.6789C351.792 18.3203 350 17.2783 348.058 16.6127C346.116 15.9471 344.062 15.6709 342.014 15.7999ZM334.756 38.7199C334.132 38.5317 333.578 38.1629 333.164 37.6597C332.75 37.1567 332.494 36.5421 332.43 35.8937C332.364 35.2453 332.494 34.5923 332.8 34.0173C333.106 33.4421 333.576 32.9709 334.15 32.6631C334.726 32.3551 335.378 32.2245 336.026 32.2877C336.674 32.3509 337.29 32.6049 337.794 33.0179C338.298 33.4307 338.668 33.9837 338.858 34.6071C339.048 35.2305 339.048 35.8961 338.86 36.5199C338.736 36.9345 338.532 37.3205 338.258 37.6557C337.984 37.9907 337.646 38.2685 337.266 38.4731C336.884 38.6775 336.466 38.8045 336.036 38.8469C335.604 38.8893 335.17 38.8461 334.756 38.7199ZM345.054 29.5999C344.152 29.3297 343.352 28.7985 342.752 28.0731C342.152 27.3477 341.78 26.4607 341.686 25.5245C341.59 24.5883 341.774 23.6447 342.214 22.8129C342.654 21.9811 343.332 21.2985 344.16 20.8515C344.988 20.4045 345.93 20.2129 346.866 20.3011C347.804 20.3893 348.694 20.7535 349.424 21.3473C350.154 21.9409 350.692 22.7379 350.968 23.6373C351.246 24.5365 351.25 25.4979 350.982 26.3999C350.616 27.6075 349.788 28.6215 348.678 29.2209C347.566 29.8203 346.264 29.9565 345.054 29.5999ZM347.524 40.3999C347.066 40.2639 346.68 39.9513 346.452 39.5307C346.224 39.1103 346.172 38.6165 346.308 38.1579C346.444 37.6993 346.756 37.3137 347.178 37.0855C347.598 36.8575 348.092 36.8059 348.55 36.9419C349.008 37.0779 349.394 37.3907 349.622 37.8111C349.85 38.2315 349.902 38.7253 349.766 39.1839C349.63 39.6425 349.318 40.0281 348.896 40.2563C348.476 40.4843 347.982 40.5359 347.524 40.3999Z" fill="black"/>
<path d="M242.914 78.2719C242.268 76.8719 241.314 74.9719 240.406 73.2239C243.33 73.5999 244.168 75.5739 242.914 78.2719Z" fill="black"/>
<path d="M230.108 146.864C227.258 148.08 226.46 153.438 227.524 160.924L244.358 158.112C239.91 151.538 234.022 145.268 230.108 146.864Z" fill="black"/>
<path d="M260.772 208.2C260.126 211.924 258.15 214.242 254.502 212.646C256.592 211.198 258.682 209.716 260.772 208.2Z" fill="black"/>
<path d="M220.648 91.3859C217.19 91.1959 216.048 89.0679 217.72 85.9139C218.594 87.7909 219.57 89.6179 220.648 91.3859Z" fill="black"/>
<path d="M298.276 154.274C298.276 154.702 298.106 155.113 297.804 155.415C297.5 155.718 297.09 155.888 296.662 155.888C296.234 155.888 295.824 155.718 295.52 155.415C295.218 155.113 295.048 154.702 295.048 154.274C295.048 153.846 295.218 153.435 295.52 153.133C295.824 152.83 296.234 152.66 296.662 152.66C297.09 152.66 297.5 152.83 297.804 153.133C298.106 153.435 298.276 153.846 298.276 154.274Z" fill="black"/>
<path d="M324.838 145.306C324.824 145.724 324.646 146.121 324.346 146.412C324.044 146.703 323.642 146.865 323.224 146.865C322.804 146.865 322.402 146.703 322.1 146.412C321.8 146.121 321.622 145.724 321.608 145.306C321.622 144.888 321.8 144.491 322.1 144.2C322.402 143.909 322.804 143.747 323.224 143.747C323.642 143.747 324.044 143.909 324.346 144.2C324.646 144.491 324.824 144.888 324.838 145.306Z" fill="black"/>
<path d="M335.4 116.504C335.386 116.922 335.208 117.319 334.908 117.61C334.606 117.901 334.204 118.063 333.784 118.063C333.366 118.063 332.964 117.901 332.662 117.61C332.362 117.319 332.184 116.922 332.17 116.504C332.162 116.287 332.198 116.071 332.276 115.868C332.354 115.666 332.472 115.481 332.622 115.325C332.774 115.169 332.954 115.044 333.154 114.96C333.354 114.875 333.568 114.831 333.784 114.831C334.002 114.831 334.216 114.875 334.416 114.96C334.616 115.044 334.796 115.169 334.948 115.325C335.098 115.481 335.216 115.666 335.294 115.868C335.372 116.071 335.408 116.287 335.4 116.504Z" fill="black"/>
<path d="M360.4 102.064C360.386 102.482 360.208 102.879 359.908 103.17C359.606 103.46 359.204 103.623 358.786 103.623C358.366 103.623 357.964 103.46 357.662 103.17C357.362 102.879 357.184 102.482 357.17 102.064C357.184 101.645 357.362 101.249 357.662 100.958C357.964 100.667 358.366 100.505 358.786 100.505C359.204 100.505 359.606 100.667 359.908 100.958C360.208 101.249 360.386 101.645 360.4 102.064Z" fill="black"/>
<path d="M291.704 181.216C291.69 181.634 291.512 182.03 291.212 182.322C290.91 182.612 290.508 182.776 290.088 182.776C289.67 182.776 289.268 182.612 288.966 182.322C288.666 182.03 288.488 181.634 288.474 181.216C288.488 180.798 288.666 180.402 288.966 180.11C289.268 179.82 289.67 179.656 290.088 179.656C290.508 179.656 290.91 179.82 291.212 180.11C291.512 180.402 291.69 180.798 291.704 181.216Z" fill="black"/>
<path d="M263.242 171.488C263.228 171.906 263.05 172.302 262.75 172.594C262.448 172.884 262.046 173.048 261.626 173.048C261.208 173.048 260.806 172.884 260.504 172.594C260.204 172.302 260.026 171.906 260.012 171.488C260.026 171.07 260.204 170.674 260.504 170.382C260.806 170.092 261.208 169.928 261.626 169.928C262.046 169.928 262.448 170.092 262.75 170.382C263.05 170.674 263.228 171.07 263.242 171.488Z" fill="black"/>
<path d="M271.678 143.4C271.664 143.818 271.486 144.215 271.186 144.506C270.884 144.796 270.482 144.959 270.062 144.959C269.644 144.959 269.242 144.796 268.94 144.506C268.64 144.215 268.462 143.818 268.448 143.4C268.462 142.981 268.64 142.585 268.94 142.294C269.242 142.003 269.644 141.841 270.062 141.841C270.482 141.841 270.884 142.003 271.186 142.294C271.486 142.585 271.664 142.981 271.678 143.4Z" fill="black"/>
<path d="M264.268 114.072C264.254 114.49 264.076 114.887 263.776 115.178C263.474 115.468 263.072 115.631 262.652 115.631C262.234 115.631 261.832 115.468 261.53 115.178C261.23 114.887 261.052 114.49 261.038 114.072C261.052 113.653 261.23 113.257 261.53 112.966C261.832 112.675 262.234 112.513 262.652 112.513C263.072 112.513 263.474 112.675 263.776 112.966C264.076 113.257 264.254 113.653 264.268 114.072Z" fill="black"/>
<path d="M233.186 102.064C233.172 102.482 232.994 102.879 232.694 103.17C232.392 103.46 231.99 103.623 231.57 103.623C231.152 103.623 230.75 103.46 230.448 103.17C230.148 102.879 229.97 102.482 229.956 102.064C229.97 101.645 230.148 101.249 230.448 100.958C230.75 100.667 231.152 100.505 231.57 100.505C231.99 100.505 232.392 100.667 232.694 100.958C232.994 101.249 233.172 101.645 233.186 102.064Z" fill="black"/>
<path d="M253.742 146.618H247.89L263.242 161.38L253.742 146.618Z" fill="black"/>
<path d="M303.52 143.482C302.086 143.1 300.708 142.538 299.416 141.81L303.292 146.94C303.19 145.782 303.266 144.616 303.52 143.482Z" fill="black"/>
<path d="M304.432 153.058C305.812 160.078 304.626 167.36 301.088 173.578L306.408 168.904C307.114 163.54 306.434 158.084 304.432 153.058Z" fill="black"/>
<path d="M308.726 130.412L308.126 126.412C308.018 125.711 308.05 124.995 308.22 124.307C308.388 123.618 308.692 122.969 309.112 122.397C309.532 121.826 310.06 121.342 310.666 120.975C311.274 120.607 311.946 120.363 312.648 120.256L304.516 121.472C303.26 121.667 302.114 122.297 301.276 123.252C300.44 124.207 299.964 125.426 299.934 126.696L284.492 128.696C286.43 130.52 288.216 132.296 289.622 133.864L300.804 132.512C301.186 133.733 301.994 134.778 303.078 135.457C304.162 136.136 305.454 136.406 306.72 136.218L314.8 135C314.1 135.104 313.384 135.068 312.698 134.893C312.01 134.718 311.366 134.407 310.8 133.98C310.234 133.553 309.76 133.018 309.404 132.405C309.048 131.792 308.818 131.115 308.726 130.412Z" fill="black"/>
<path d="M311.158 120.76C309.79 46.13 290.868 61.862 293.908 74.858C286.27 49.208 271.948 45.408 272.508 64.75C272.744 74.8872 274.884 84.8896 278.816 94.236C264.49 65.054 259.706 85.646 268.176 103.394C272.704 113.486 279.172 122.588 287.214 130.182C291.502 134.33 294.434 136.908 294.964 141.468" stroke="black" stroke-width="1.5" stroke-linecap="round" stroke-linejoin="round"/>
<path d="M108.55 213.324C91.8442 214.494 75.2175 210.138 61.2301 200.93C47.2427 191.72 36.6708 178.168 31.1428 162.362C25.6146 146.553 25.4371 129.366 30.637 113.447C35.8372 97.5285 46.1267 83.7607 59.9205 74.2647C73.7145 64.7685 90.2478 60.0707 106.974 60.8949C123.701 61.7191 139.692 68.0193 152.486 78.8253C165.279 89.6315 174.166 104.344 177.776 120.697C181.386 137.05 179.519 154.136 172.464 169.324" stroke="black" stroke-width="1.5" stroke-linecap="round" stroke-linejoin="round"/>
<path d="M125.118 152.146C113.946 158.872 101.938 165.636 90.6902 171.412" stroke="black" stroke-width="1.5" stroke-linecap="round" stroke-linejoin="round"/>
<path d="M159.4 85.4959C183.91 76.2259 201.318 73.5239 204.884 79.6819C209.566 87.7719 188.924 108.98 155.372 132.54" stroke="black" stroke-width="1.5" stroke-linecap="round" stroke-linejoin="round"/>
<path d="M66.1821 183.23C31.9441 198.542 6.10607 204.63 1.66007 196.946C-1.94993 190.714 9.48807 176.656 30.3481 159.746" stroke="black" stroke-width="1.5" stroke-linecap="round" stroke-linejoin="round"/>
<path d="M247.89 146.618L263.242 161.38L217.416 90.056" stroke="black" stroke-width="1.5" stroke-linecap="round" stroke-linejoin="round"/>
<path d="M311.652 134.514C311.728 149.22 299.416 141.81 299.416 141.81" stroke="black" stroke-width="1.5" stroke-linecap="round" stroke-linejoin="round"/>
<path d="M299.416 141.81L303.294 146.854" stroke="black" stroke-width="1.5" stroke-linecap="round" stroke-linejoin="round"/>
<path d="M309.41 122.052C305.06 111.452 295.964 117.588 297.308 126.904C297.44 127.822 296.708 128.704 294.82 126.612C291.602 123.028 287.448 129.012 293.946 133.678C296.682 144.622 293.68 144.546 291.172 142" stroke="black" stroke-width="1.5" stroke-linecap="round" stroke-linejoin="round"/>
<path d="M243.14 74.7059C253.896 93.1199 279.112 133.984 296.454 146.598C297.414 147.396 298.544 147.964 299.756 148.261C300.97 148.557 302.234 148.573 303.454 148.308C303.21 146.694 303.234 145.05 303.53 143.444" stroke="black" stroke-width="1.5" stroke-linecap="round" stroke-linejoin="round"/>
<path d="M306.104 169.2C308.194 162.512 304.432 153.05 304.432 153.05C304.432 153.05 313.35 181.798 259.368 212.11" stroke="black" stroke-width="1.5" stroke-linecap="round" stroke-linejoin="round"/>
<path d="M253.742 146.618H232.36" stroke="black" stroke-width="1.5" stroke-linecap="round" stroke-linejoin="round"/>
<path d="M301.088 173.578C301.088 173.578 339.316 141.778 365.838 98.834C362.502 93.0942 357.196 88.7596 350.906 86.634C342.52 98.7292 333.438 110.326 323.706 121.366" stroke="black" stroke-width="1.5" stroke-linecap="round" stroke-linejoin="round"/>
<path d="M244.4 208.498C220.538 216.022 195 220.026 168.366 222.444C163.04 222.922 157.705 221.62 153.2 218.738C148.695 215.856 145.274 211.558 143.476 206.522C134.236 180.572 125.666 155.496 114.18 116.504C118.449 112.965 123.32 110.222 128.56 108.408C133.177 106.828 137.994 105.907 142.868 105.674L172.844 170.12L244.358 158.12" stroke="black" stroke-width="1.5" stroke-linecap="round" stroke-linejoin="round"/>
<path d="M254.502 212.64C265.254 217.344 260.932 192.886 253.742 175.782C249.684 166.128 237.006 142.878 229.766 147.074C227.194 148.564 226.504 153.784 227.524 160.962" stroke="black" stroke-width="1.5" stroke-linecap="round" stroke-linejoin="round"/>
<path d="M137.466 189.46L104.598 174.46C97.419 181.256 92.4646 190.064 90.386 199.728C114.1 218.252 139.448 234.582 166.118 248.518C169.295 250.214 172.813 251.172 176.41 251.324C180.008 251.476 183.594 250.814 186.902 249.392C212.952 238.39 237.722 224.574 260.772 208.192" stroke="black" stroke-width="1.5" stroke-linecap="round" stroke-linejoin="round"/>
<path d="M138.644 106.054C131.284 106.944 124.232 109.532 118.044 113.616C116.676 108.676 98.594 74.708 99.994 72.046C102.706 66.884 117.286 85.984 126.936 90.446C136.558 94.876 136.174 101.228 138.644 106.054Z" stroke="black" stroke-width="1.5" stroke-linecap="round" stroke-linejoin="round"/>
<path d="M90.69 171.412C88.1888 171.076 85.646 171.23 83.204 171.868C72.868 174.298 50.526 168.106 50.678 173.92C50.792 177.756 90.12 193.376 91.716 194.97C93.8274 188.28 97.3818 182.136 102.128 176.97C98.6 175.326 95.744 172.21 90.69 171.412Z" stroke="black" stroke-width="1.5" stroke-linecap="round" stroke-linejoin="round"/>
<path d="M225.434 53.2739C225.434 53.2739 225.434 48.7519 225.396 41.7219C225.356 34.3499 228.216 32.9379 229.31 41.3039C229.428 42.2159 230.83 51.3739 231.248 54.0719C231.476 55.5539 232.538 59.6459 233.908 59.4719C237.666 58.9819 244.748 50.7599 246.978 53.2019C248.43 54.8019 244.06 60.5779 240.822 64.4879C239.91 65.5867 239.344 66.9311 239.196 68.3515C239.046 69.7719 239.322 71.2043 239.988 72.4679C240.1 72.6919 242.712 77.9459 242.914 78.2679" stroke="black" stroke-width="1.5" stroke-linecap="round" stroke-linejoin="round"/>
<path d="M226 55.136C226 55.136 221.138 39.746 220.832 38.72C218.42 30.658 215.844 32.49 217.032 39.746C218.164 46.664 219.432 55.098 219.432 55.098" stroke="black" stroke-width="1.5" stroke-linecap="round" stroke-linejoin="round"/>
<path d="M220.646 57.6C218.292 52.9148 216.222 48.0928 214.446 43.16C211.55 35.26 209.384 37.234 210.722 44.49C211.45 48.973 212.52 53.3938 213.922 57.714" stroke="black" stroke-width="1.5" stroke-linecap="round" stroke-linejoin="round"/>
<path d="M217.698 85.9539C216.058 89.0859 217.206 91.1979 220.648 91.3859C227.648 91.7659 239.972 84.5519 242.914 78.2719C244.178 75.5779 243.33 73.6039 240.406 73.2239" stroke="black" stroke-width="1.5" stroke-linecap="round" stroke-linejoin="round"/>
<path d="M216.614 61.676C213.852 58.0144 211.544 54.0322 209.74 49.816C206.442 42.016 204.368 44.158 206.206 51.564C206.696 53.54 207.206 55.248 207.65 56.694C208.95 60.834 210.196 65.016 211.374 69.196C212.662 73.796 217.146 86.258 220.648 91.396" stroke="black" stroke-width="1.5" stroke-linecap="round" stroke-linejoin="round"/>
<path d="M228.474 54.376C221.406 56.618 217.416 60.228 212.818 66.08" stroke="black" stroke-width="1.5" stroke-linecap="round" stroke-linejoin="round"/>
<path d="M230.222 57.682C227.732 60.1944 225.794 63.1988 224.53 66.5032C223.268 69.8076 222.708 73.3392 222.888 76.872" stroke="black" stroke-width="1.5" stroke-linecap="round" stroke-linejoin="round"/>
<path d="M352.502 87.2819C352.502 87.2819 357.29 78.4659 355.882 71.5519C354.212 63.3519 355.558 63.1819 359.644 70.3359C362.354 75.0779 363.9 86.4459 363.9 86.4459" stroke="black" stroke-width="1.5" stroke-linecap="round" stroke-linejoin="round"/>
<path d="M364.698 97.01C364.698 97.01 371.992 85.116 373.742 77.098C375.26 70.144 372.64 73.262 371.69 75.498" stroke="black" stroke-width="1.5" stroke-linecap="round" stroke-linejoin="round"/>
<path d="M365.512 71.282C365.886 68.7046 366.008 66.097 365.876 63.496C365.382 56.124 363.628 56.616 362.456 62.964C361.926 65.9432 361.216 68.8874 360.328 71.78" stroke="black" stroke-width="1.5" stroke-linecap="round" stroke-linejoin="round"/>
<path d="M364.128 69.6899C367.386 73.1745 369.448 77.6059 370.018 82.3419" stroke="black" stroke-width="1.5" stroke-linecap="round" stroke-linejoin="round"/>
<path d="M365.876 67.3339C366.446 65.7339 366.98 63.9479 367.476 61.9759C369.216 55.0579 370.744 56.4659 370.402 62.6979C370.13 67.0745 369.348 71.4045 368.072 75.5999" stroke="black" stroke-width="1.5" stroke-linecap="round" stroke-linejoin="round"/>
<path d="M370.018 67.22C371.804 59.696 373.594 60.912 373.096 67.714C372.668 72.2752 371.554 76.7456 369.79 80.974" stroke="black" stroke-width="1.5" stroke-linecap="round" stroke-linejoin="round"/>
<path d="M101.482 249.65L102.394 254.894" stroke="black" stroke-width="1.5" stroke-linecap="round" stroke-linejoin="round"/>
<path d="M98.3281 260.708L93.0461 261.658" stroke="black" stroke-width="1.5" stroke-linecap="round" stroke-linejoin="round"/>
<path d="M113.49 258.048L108.208 258.96" stroke="black" stroke-width="1.5" stroke-linecap="round" stroke-linejoin="round"/>
<path d="M105.054 270.056L104.142 264.774" stroke="black" stroke-width="1.5" stroke-linecap="round" stroke-linejoin="round"/>
<path d="M108.2 258.96C107.551 259.078 106.885 259.068 106.24 258.928C105.595 258.786 104.984 258.52 104.444 258.142C103.903 257.764 103.442 257.282 103.089 256.724C102.736 256.166 102.497 255.544 102.386 254.894C102.505 255.544 102.494 256.21 102.353 256.854C102.213 257.5 101.946 258.11 101.568 258.65C101.189 259.192 100.708 259.652 100.15 260.004C99.5927 260.358 98.9707 260.598 98.3201 260.708C98.9693 260.59 99.6355 260.6 100.28 260.74C100.925 260.882 101.536 261.148 102.076 261.526C102.617 261.904 103.078 262.386 103.431 262.944C103.784 263.502 104.023 264.124 104.134 264.774C104.015 264.124 104.026 263.458 104.167 262.814C104.307 262.168 104.574 261.558 104.952 261.018C105.331 260.476 105.812 260.016 106.37 259.664C106.927 259.31 107.549 259.07 108.2 258.96Z" stroke="black" stroke-width="1.5" stroke-linecap="round" stroke-linejoin="round"/>
<path d="M177.404 24.204L178.05 27.89" stroke="black" stroke-width="1.5" stroke-linecap="round" stroke-linejoin="round"/>
<path d="M175.162 31.994L171.476 32.64" stroke="black" stroke-width="1.5" stroke-linecap="round" stroke-linejoin="round"/>
<path d="M185.876 30.132L182.154 30.778" stroke="black" stroke-width="1.5" stroke-linecap="round" stroke-linejoin="round"/>
<path d="M179.912 38.606L179.266 34.882" stroke="black" stroke-width="1.5" stroke-linecap="round" stroke-linejoin="round"/>
<path d="M182.154 30.778C181.695 30.8592 181.224 30.849 180.769 30.7476C180.314 30.6462 179.883 30.456 179.502 30.1876C179.12 29.9192 178.796 29.578 178.547 29.1836C178.297 28.7894 178.129 28.3498 178.05 27.89C178.132 28.3496 178.123 28.821 178.022 29.277C177.921 29.733 177.731 30.1644 177.462 30.5464C177.194 30.9286 176.852 31.2536 176.458 31.5032C176.063 31.7526 175.623 31.9214 175.162 32C175.621 31.9188 176.092 31.929 176.547 32.0304C177.003 32.1318 177.433 32.322 177.815 32.5904C178.196 32.8588 178.521 33.2 178.77 33.5944C179.019 33.9886 179.188 34.4282 179.266 34.888C179.184 34.4284 179.194 33.957 179.295 33.501C179.396 33.045 179.586 32.6136 179.854 32.2316C180.123 31.8494 180.464 31.5244 180.859 31.2748C181.254 31.0254 181.694 30.8566 182.154 30.778Z" stroke="black" stroke-width="1.5" stroke-linecap="round" stroke-linejoin="round"/>
<path d="M359.986 127.79L361.62 136.984" stroke="black" stroke-width="1.5" stroke-linecap="round" stroke-linejoin="round"/>
<path d="M354.476 147.168L345.282 148.802" stroke="black" stroke-width="1.5" stroke-linecap="round" stroke-linejoin="round"/>
<path d="M381 142.494L371.804 144.128" stroke="black" stroke-width="1.5" stroke-linecap="round" stroke-linejoin="round"/>
<path d="M366.294 163.47L364.66 154.274" stroke="black" stroke-width="1.5" stroke-linecap="round" stroke-linejoin="round"/>
<path d="M371.8 144.128C369.502 144.53 367.138 144.004 365.23 142.664C363.32 141.324 362.02 139.281 361.616 136.984C362.018 139.282 361.492 141.645 360.152 143.555C358.812 145.464 356.77 146.764 354.472 147.168C356.77 146.766 359.134 147.292 361.042 148.632C362.952 149.972 364.252 152.015 364.656 154.312C364.254 152.014 364.78 149.651 366.12 147.741C367.46 145.832 369.502 144.532 371.8 144.128Z" stroke="black" stroke-width="1.5" stroke-linecap="round" stroke-linejoin="round"/>
<path d="M314.122 237.758L243.634 266.712" stroke="black" stroke-width="1.5" stroke-linecap="round" stroke-linejoin="round"/>
<path d="M226.992 288.258L314.122 237.758L207.992 320.29" stroke="black" stroke-width="1.5" stroke-linecap="round" stroke-linejoin="round"/>
<path d="M322.786 236.048C323.124 237.762 322.948 239.538 322.276 241.15C321.606 242.764 320.472 244.142 319.018 245.11C317.564 246.078 315.856 246.594 314.108 246.59C312.362 246.588 310.654 246.068 309.204 245.096C307.752 244.122 306.622 242.742 305.956 241.126C305.29 239.512 305.118 237.736 305.462 236.022C305.806 234.31 306.648 232.738 307.886 231.504C309.124 230.27 310.698 229.432 312.412 229.094C313.55 228.868 314.722 228.87 315.858 229.098C316.996 229.324 318.078 229.774 319.04 230.42C320.004 231.066 320.832 231.896 321.474 232.862C322.116 233.826 322.562 234.91 322.786 236.048Z" stroke="black" stroke-width="1.5" stroke-linecap="round" stroke-linejoin="round"/>
<path d="M317.352 119.62C359.682 77.706 286.042 43.62 328.372 1.70996" stroke="black" stroke-width="1.5" stroke-linecap="round" stroke-linejoin="round"/>
<path d="M131.462 107.498L158.86 181.862" stroke="black" stroke-width="1.5" stroke-linecap="round" stroke-linejoin="round"/>
<path d="M158.86 181.862C160.224 185.55 162.827 188.65 166.223 190.632C169.619 192.614 173.598 193.354 177.48 192.728" stroke="black" stroke-width="1.5" stroke-linecap="round" stroke-linejoin="round"/>
<path d="M177.518 192.728L255.452 180.038" stroke="black" stroke-width="1.5" stroke-linecap="round" stroke-linejoin="round"/>
<path d="M289.614 133.87L300.936 132.502L300.062 126.688L284.484 128.702L289.614 133.87Z" stroke="black" stroke-width="1.5" stroke-linecap="round" stroke-linejoin="round"/>
<path d="M312.64 120.304L304.508 121.52C303.806 121.627 303.134 121.871 302.526 122.239C301.92 122.606 301.392 123.09 300.972 123.661C300.552 124.233 300.248 124.882 300.08 125.571C299.91 126.259 299.878 126.975 299.986 127.676L300.586 131.676C300.794 133.091 301.556 134.366 302.702 135.22C303.85 136.075 305.288 136.439 306.704 136.234L314.8 135" stroke="black" stroke-width="1.5" stroke-linecap="round" stroke-linejoin="round"/>
<path d="M320.886 134.096C321.588 133.989 322.26 133.745 322.866 133.377C323.474 133.01 324.002 132.527 324.422 131.956C324.842 131.384 325.144 130.736 325.314 130.047C325.484 129.358 325.516 128.643 325.408 127.942L324.808 123.942C324.6 122.527 323.84 121.251 322.692 120.396C321.546 119.541 320.106 119.177 318.69 119.382L312.648 120.294C311.946 120.401 311.274 120.645 310.666 121.013C310.06 121.38 309.532 121.864 309.112 122.435C308.692 123.007 308.388 123.656 308.22 124.345C308.05 125.033 308.018 125.749 308.126 126.45L308.726 130.44C308.824 131.139 309.06 131.811 309.418 132.419C309.778 133.026 310.252 133.557 310.816 133.981C311.38 134.404 312.024 134.713 312.706 134.887C313.39 135.062 314.102 135.101 314.8 135L320.886 134.096Z" stroke="black" stroke-width="1.5" stroke-linecap="round" stroke-linejoin="round"/>
</svg>
