<svg width="477" height="99" viewBox="0 0 477 99" fill="none" xmlns="http://www.w3.org/2000/svg" style="width:100%">
<circle cx="39" cy="54" r="36.5" stroke="white" stroke-width="5"/>
<path d="M23 44.7436V64.2308L39 73L55 64.2308V44.7436L39 36L23 44.7436Z" stroke="white" stroke-width="5"/>
<line x1="89.5" y1="15" x2="89.5" y2="93" stroke="white" stroke-width="5"/>
<path d="M126.625 22.6562V44.6875H156.469V22.6562H163.5V75H156.469V51.3281H126.625V75H119.594V22.6562H126.625ZM194.828 35.1562C198.839 35.1562 202.172 35.9896 204.828 37.6562C207.484 39.3229 209.464 41.5885 210.766 44.4531C212.12 47.3177 212.797 50.5469 212.797 54.1406V57.9688H182.797C183.109 60.1562 183.865 62.1615 185.062 63.9844C186.26 65.8073 187.823 67.2656 189.75 68.3594C191.677 69.401 193.891 69.9219 196.391 69.9219C199.203 69.9219 201.833 69.2188 204.281 67.8125C206.729 66.3542 208.786 64.7656 210.453 63.0469L210.375 70C209.646 70.8854 208.552 71.8229 207.094 72.8125C205.688 73.75 204.047 74.5312 202.172 75.1562C200.349 75.8333 198.422 76.1719 196.391 76.1719C192.432 76.1719 188.917 75.2344 185.844 73.3594C182.771 71.4844 180.349 69.0104 178.578 65.9375C176.859 62.8125 176 59.401 176 55.7031C176 52.0052 176.807 48.5938 178.422 45.4688C180.036 42.3438 182.25 39.8438 185.062 37.9688C187.927 36.0938 191.182 35.1562 194.828 35.1562ZM194.828 41.4062C191.599 41.4062 188.943 42.5 186.859 44.6875C184.776 46.8229 183.474 49.4271 182.953 52.5H206.469C206.208 49.9479 205.479 47.8646 204.281 46.25C203.135 44.6354 201.729 43.4375 200.062 42.6562C198.396 41.8229 196.651 41.4062 194.828 41.4062ZM256.938 35.9375L240.766 54.6875L257.172 75H248.891L236.781 58.8281L224.594 75H216.312L232.719 54.6875L216.547 35.9375H224.828L236.781 50L248.656 35.9375H256.938ZM281.078 35.1562C283.318 35.1562 285.583 35.7031 287.875 36.7969C290.219 37.8385 292.224 39.2969 293.891 41.1719V35.9375H300.297V75H293.891V68.3594C292.536 70.4427 290.688 72.2656 288.344 73.8281C286.052 75.3906 283.422 76.1719 280.453 76.1719C277.12 76.1719 274.073 75.3385 271.312 73.6719C268.552 71.9531 266.339 69.5833 264.672 66.5625C263.057 63.5417 262.25 60.0521 262.25 56.0938C262.25 51.7708 263.057 48.0469 264.672 44.9219C266.339 41.7969 268.604 39.401 271.469 37.7344C274.333 36.0156 277.536 35.1562 281.078 35.1562ZM282.25 41.4062C279.438 41.4062 277.042 42.1094 275.062 43.5156C273.083 44.9219 271.547 46.7448 270.453 48.9844C269.411 51.1719 268.891 53.5417 268.891 56.0938C268.891 58.5938 269.411 60.9115 270.453 63.0469C271.495 65.1302 272.953 66.7969 274.828 68.0469C276.755 69.2969 278.969 69.9219 281.469 69.9219C283.865 69.9219 286 69.2969 287.875 68.0469C289.75 66.7969 291.234 65.0781 292.328 62.8906C293.422 60.651 293.943 58.151 293.891 55.3906L293.812 47.8906C292.198 45.8594 290.453 44.2708 288.578 43.125C286.755 41.9792 284.646 41.4062 282.25 41.4062ZM348.891 18.75V75H342.484V68.3594C341.13 70.4427 339.281 72.2656 336.938 73.8281C334.646 75.3906 332.016 76.1719 329.047 76.1719C325.714 76.1719 322.667 75.3385 319.906 73.6719C317.146 71.9531 314.932 69.5833 313.266 66.5625C311.651 63.5417 310.844 60.0521 310.844 56.0938C310.844 51.7708 311.651 48.0469 313.266 44.9219C314.932 41.7969 317.198 39.401 320.062 37.7344C322.927 36.0156 326.13 35.1562 329.672 35.1562C331.911 35.1562 334.177 35.7031 336.469 36.7969C338.812 37.8385 340.818 39.2969 342.484 41.1719V18.75H348.891ZM330.844 41.5625C328.031 41.5625 325.635 42.2656 323.656 43.6719C321.677 45.026 320.141 46.7969 319.047 48.9844C318.005 51.1719 317.484 53.5417 317.484 56.0938C317.484 58.5938 318.005 60.9115 319.047 63.0469C320.089 65.1302 321.547 66.7969 323.422 68.0469C325.349 69.2969 327.562 69.9219 330.062 69.9219C332.458 69.9219 334.594 69.2969 336.469 68.0469C338.344 66.7969 339.828 65.0781 340.922 62.8906C342.016 60.651 342.536 58.151 342.484 55.3906L342.406 47.8906C340.792 45.8594 339.047 44.2969 337.172 43.2031C335.349 42.1094 333.24 41.5625 330.844 41.5625ZM368.422 17.1875C369.932 17.1875 371.182 17.7344 372.172 18.8281C373.214 19.8698 373.734 21.0938 373.734 22.5C373.734 23.8542 373.214 25.0781 372.172 26.1719C371.182 27.2656 369.932 27.8125 368.422 27.8125C366.911 27.8125 365.635 27.2656 364.594 26.1719C363.604 25.0781 363.109 23.8542 363.109 22.5C363.109 21.0938 363.604 19.8698 364.594 18.8281C365.635 17.7344 366.911 17.1875 368.422 17.1875ZM372.406 35.9375V75H366V41.9531H359.828V35.9375H372.406ZM402.328 35.1562C404.568 35.1562 406.833 35.7031 409.125 36.7969C411.469 37.8385 413.474 39.2969 415.141 41.1719V35.9375H421.547V74.2188C421.547 78.8542 420.609 82.7083 418.734 85.7812C416.859 88.8542 414.359 91.1458 411.234 92.6562C408.109 94.1667 404.698 94.9219 401 94.9219C398.604 94.9219 396.547 94.6354 394.828 94.0625C393.161 93.5417 391.729 92.8646 390.531 92.0312C389.333 91.25 388.24 90.4948 387.25 89.7656V82.8906C388.031 83.4635 389.047 84.1927 390.297 85.0781C391.599 86.0156 393.135 86.849 394.906 87.5781C396.729 88.3073 398.76 88.6719 401 88.6719C403.552 88.6719 405.896 88.2031 408.031 87.2656C410.167 86.3281 411.885 84.9479 413.188 83.125C414.49 81.3021 415.141 79.1146 415.141 76.5625V68.3594C413.786 70.4427 411.938 72.2656 409.594 73.8281C407.302 75.3906 404.672 76.1719 401.703 76.1719C398.37 76.1719 395.323 75.3385 392.562 73.6719C389.802 71.9531 387.589 69.5833 385.922 66.5625C384.307 63.5417 383.5 60.0521 383.5 56.0938C383.5 51.7708 384.307 48.0469 385.922 44.9219C387.589 41.7969 389.854 39.401 392.719 37.7344C395.583 36.0156 398.786 35.1562 402.328 35.1562ZM403.5 41.4844C400.688 41.4844 398.292 42.1875 396.312 43.5938C394.333 44.9479 392.797 46.7448 391.703 48.9844C390.661 51.1719 390.141 53.5417 390.141 56.0938C390.141 58.5938 390.661 60.8854 391.703 62.9688C392.745 65.0521 394.203 66.7188 396.078 67.9688C398.005 69.2188 400.219 69.8438 402.719 69.8438C405.115 69.8438 407.25 69.2188 409.125 67.9688C411 66.7188 412.484 65 413.578 62.8125C414.672 60.625 415.193 58.151 415.141 55.3906L415.062 47.8906C413.448 45.8594 411.703 44.2969 409.828 43.2031C408.005 42.0573 405.896 41.4844 403.5 41.4844ZM441.078 17.1875C442.589 17.1875 443.839 17.7344 444.828 18.8281C445.87 19.8698 446.391 21.0938 446.391 22.5C446.391 23.8542 445.87 25.0781 444.828 26.1719C443.839 27.2656 442.589 27.8125 441.078 27.8125C439.568 27.8125 438.292 27.2656 437.25 26.1719C436.26 25.0781 435.766 23.8542 435.766 22.5C435.766 21.0938 436.26 19.8698 437.25 18.8281C438.292 17.7344 439.568 17.1875 441.078 17.1875ZM445.062 35.9375V75H438.656V41.9531H432.484V35.9375H445.062Z" fill="white"/>
</svg>
