<svg xmlns="http://www.w3.org/2000/svg" fill="none" viewBox="0 0 400 400"><g transform="matrix(2,0,0,2,0,0)"><path fill="#4395fd" d="M71.88 159.536L56.072 166.813C56.49 166.604 73.438 155.927 73.438 155.927C73.438 151.992 70.754 146.341 66.332 145.572L68.555 142.532C66.1508 139.131 62.5921 136.72 58.542 135.748L49.08 147.719C47.8532 143.534 45.3813 139.823 41.993 137.078C39.7007 136.48 37.4828 135.626 35.381 134.533C34.481 138.115 33.406 140.801 33.181 143.653C32.781 148.615 32.868 159.253 34.549 163.453C34.169 164.992 29.875 183.346 45.227 183.365H72.336C74.278 175.549 73.722 167.341 71.88 159.536Z"></path><path fill="#000000" d="M37.281 130.58L39.96 132.708C39.96 132.252 39.998 131.796 40.017 131.303C39.0728 131.207 38.1495 130.963 37.281 130.58V130.58Z"></path><path fill="#000000" d="M24.988 123.4C24.646 124.577 22.988 131.323 28.56 134.856C28.028 135.084 25.387 136.947 25.16 137.118C22.7736 138.882 20.6927 141.025 19 143.462C15.523 148.687 15.105 156.515 20.444 160.677C23.978 163.412 30.4 163.641 33.763 160.377C32.9719 154.847 32.7808 149.248 33.193 143.677C33.421 140.75 34.485 138.243 35.131 135.544C36.594 129.497 35.626 127.918 34.276 124.544C31.711 123.918 32.623 120.878 34.39 121.903C34.6378 122.065 34.9156 122.175 35.207 122.227C36.176 117.287 38.057 116.927 39.767 118.521C37.323 115.312 27.35 115.33 24.988 123.4Z"></path><path fill="#000000" d="M71.215 157.294C57.953 165.735 56.887 166.387 56.034 166.813L71.842 159.536L71.215 157.294Z"></path><path fill="#000000" d="M127.36 181.747C123.997 178.897 119.06 175.439 114.649 174.147C110.651 175.297 106.411 175.297 102.413 174.147C101.631 176.375 101.133 178.694 100.931 181.047C100.907 181.328 100.943 181.61 101.034 181.877C101.126 182.143 101.272 182.388 101.463 182.595C101.654 182.802 101.886 182.967 102.145 183.079C102.403 183.191 102.682 183.248 102.964 183.247C110.621 183.266 117.271 183.347 126.771 183.362C126.959 183.363 127.143 183.306 127.298 183.199C127.452 183.091 127.57 182.939 127.634 182.762C127.698 182.585 127.707 182.393 127.658 182.211C127.609 182.029 127.505 181.867 127.36 181.747V181.747Z"></path><path fill="#000000" d="M150.293 158.814C150.279 158.633 150.209 158.46 150.092 158.321C149.975 158.181 149.818 158.081 149.642 158.035C149.466 157.989 149.28 157.999 149.11 158.064C148.94 158.129 148.794 158.245 148.693 158.396C145.843 161.76 142.385 169.74 141.093 174.147C142.193 178.366 142.271 179.41 141.112 183.363H150.212C151 183.438 151.7 166.662 150.293 158.814Z"></path><path fill="#000000" d="M50.657 46.581C50.657 47.0883 50.5066 47.5842 50.2247 48.006C49.9429 48.4278 49.5423 48.7566 49.0736 48.9507C48.6049 49.1449 48.0892 49.1957 47.5916 49.0967C47.094 48.9977 46.637 48.7534 46.2783 48.3947C45.9196 48.036 45.6753 47.579 45.5763 47.0814C45.4773 46.5838 45.5281 46.0681 45.7222 45.5994C45.9164 45.1307 46.2452 44.7301 46.667 44.4483C47.0888 44.1664 47.5847 44.016 48.092 44.016C48.7722 44.0163 49.4245 44.2866 49.9054 44.7676C50.3864 45.2485 50.6567 45.9008 50.657 46.581Z"></path><path fill="#000000" d="M115.257 86.253H89.4C88.6996 86.253 88.0278 86.5312 87.5325 87.0265C87.0372 87.5218 86.759 88.1936 86.759 88.894C86.759 89.5944 87.0372 90.2662 87.5325 90.7615C88.0278 91.2567 88.6996 91.535 89.4 91.535H115.259C115.959 91.535 116.631 91.2567 117.126 90.7615C117.622 90.2662 117.9 89.5944 117.9 88.894C117.9 88.1936 117.622 87.5218 117.126 87.0265C116.631 86.5312 115.959 86.253 115.259 86.253H115.257Z"></path><path fill="#000000" d="M45.508 100.962H29.928C29.2276 100.962 28.5558 100.684 28.0605 100.188C27.5652 99.6931 27.287 99.0214 27.287 98.3209C27.287 97.6205 27.5652 96.9487 28.0605 96.4535C28.5558 95.9582 29.2276 95.6799 29.928 95.6799H45.508C46.2084 95.6799 46.8802 95.9582 47.3755 96.4535C47.8708 96.9487 48.149 97.6205 48.149 98.3209C48.149 99.0214 47.8708 99.6931 47.3755 100.188C46.8802 100.684 46.2084 100.962 45.508 100.962Z"></path><path fill="#000000" d="M164.771 84.468H149.628C149.277 84.4611 148.928 84.5244 148.602 84.654C148.275 84.7836 147.978 84.977 147.727 85.2229C147.477 85.4688 147.278 85.7622 147.142 86.0859C147.006 86.4097 146.936 86.7573 146.936 87.1085C146.936 87.4596 147.006 87.8072 147.142 88.131C147.278 88.4548 147.477 88.7481 147.727 88.994C147.978 89.2399 148.275 89.4333 148.602 89.5629C148.928 89.6926 149.277 89.7558 149.628 89.749H164.771C165.122 89.7558 165.471 89.6926 165.797 89.5629C166.124 89.4333 166.421 89.2399 166.672 88.994C166.922 88.7481 167.121 88.4548 167.257 88.131C167.393 87.8072 167.463 87.4596 167.463 87.1085C167.463 86.7573 167.393 86.4097 167.257 86.0859C167.121 85.7622 166.922 85.4688 166.672 85.2229C166.421 84.977 166.124 84.7836 165.797 84.654C165.471 84.5244 165.122 84.4611 164.771 84.468Z"></path><path fill="#000000" d="M81.019 168.334L74.008 173.065C75.4474 171.516 76.7811 169.872 78 168.144C77.979 168.162 79.138 168.2 81.019 168.334Z"></path><g><path stroke="#000000" stroke-linecap="round" stroke-linejoin="round" stroke-width=".75" d="M42.392 130.295C45.2105 132.317 48.5939 133.402 52.063 133.395H63.863"></path><path stroke="#000000" stroke-linecap="round" stroke-linejoin="round" stroke-width=".75" d="M72.944 133.392H69.163"></path><path stroke="#000000" stroke-linecap="round" stroke-linejoin="round" stroke-width=".75" d="M73.647 133.393H152.725C154.906 133.394 157.066 132.965 159.081 132.131C161.096 131.296 162.927 130.073 164.469 128.531C166.011 126.989 167.234 125.158 168.069 123.143C168.903 121.128 169.332 118.968 169.331 116.787V112.074"></path><path stroke="#000000" stroke-linecap="round" stroke-linejoin="round" stroke-width=".75" d="M169.331 80.154V52.205C169.332 50.0241 168.903 47.8645 168.068 45.8495C167.234 43.8345 166.011 42.0037 164.469 40.4617C162.926 38.9196 161.096 37.6965 159.081 36.8623C157.066 36.0281 154.906 35.5992 152.725 35.6H52.063C49.8821 35.5992 47.7225 36.0281 45.7075 36.8623C43.6924 37.6965 41.8615 38.9196 40.3194 40.4617C38.7772 42.0037 37.554 43.8345 36.7197 45.8495C35.8854 47.8645 35.4563 50.0241 35.457 52.205V80.154"></path><path stroke="#000000" stroke-linecap="round" stroke-linejoin="round" stroke-width=".75" d="M35.457 116.615V112.074"></path><path stroke="#000000" stroke-linecap="round" stroke-linejoin="round" stroke-width=".75" d="M34.545 163.451C34.1851 162.438 33.9174 161.395 33.745 160.334"></path><path stroke="#000000" stroke-linecap="round" stroke-linejoin="round" stroke-width=".75" d="M36.6 136.85C38.0236 137.289 39.4141 137.828 40.761 138.465C42.2471 139.224 43.4677 140.417 44.261 141.885C46.7403 146.47 49.448 150.928 52.374 155.242L66.301 145.552C68.942 146.009 70.907 148.142 72.02 150.474C72.8723 152.162 73.3457 154.017 73.407 155.907C72.37 156.576 59.244 164.915 57.314 166.092C50.791 170.07 45.708 168.702 42 162.007C41.411 160.943 35.863 151.994 35.863 151.994"></path><path stroke="#000000" stroke-linecap="round" stroke-linejoin="round" stroke-width=".75" d="M39.96 132.708L37.281 130.58C38.1559 130.963 39.0855 131.207 40.036 131.302"></path><path stroke="#000000" stroke-linecap="round" stroke-linejoin="round" stroke-width=".75" d="M50.353 152.184C49.7374 149.577 48.8983 147.028 47.845 144.565C45.295 139.056 41.603 137.049 40.663 135.844C40.0545 134.919 39.8055 133.804 39.963 132.708L40.039 131.302C40.4869 131.34 40.9374 131.268 41.3513 131.093C41.7652 130.917 42.13 130.643 42.414 130.295C44.44 127.721 42.319 120.909 39.773 118.515"></path><path stroke="#000000" stroke-linecap="round" stroke-linejoin="round" stroke-width=".75" d="M39.77 118.515C38.06 116.915 36.179 117.281 35.21 122.221C34.9185 122.169 34.6406 122.059 34.393 121.897C32.625 120.873 31.714 123.911 34.279 124.538C34.8404 125.637 35.2678 126.799 35.552 128C36.0688 130.508 35.9248 133.107 35.134 135.542C34.485 138.242 33.434 140.749 33.196 143.675C32.7873 149.246 32.9784 154.845 33.766 160.375C30.403 163.643 23.977 163.421 20.447 160.675C15.1 156.524 15.519 148.683 19 143.462C20.6845 141.019 22.7651 138.875 25.156 137.117C25.383 136.944 28.025 135.083 28.556 134.855C22.989 131.321 24.641 124.576 24.984 123.399C26.574 117.944 31.595 116.212 35.453 116.577C37.0912 116.629 38.6427 117.325 39.77 118.515V118.515Z"></path><path stroke="#000000" stroke-linecap="round" stroke-linejoin="round" stroke-width=".75" d="M73.565 173.485C75.975 171.347 80.738 164.305 82.482 161.585C86.026 166.357 93.672 169.509 102.375 174.143"></path><path stroke="#000000" stroke-linecap="round" stroke-linejoin="round" stroke-width=".75" d="M114.649 174.166C108.072 171.254 93.112 153.816 89.398 149.657C87.6809 147.738 85.3504 146.475 82.805 146.084"></path><path stroke="#000000" stroke-linecap="round" stroke-linejoin="round" stroke-width=".75" d="M71.825 159.544L56.034 166.813"></path><path stroke="#000000" stroke-linecap="round" stroke-linejoin="round" stroke-width=".75" d="M71.234 157.294C73.634 165.873 74.486 174.72 72.334 183.363H45.223C29.187 183.363 34.564 163.355 34.564 163.355C37.267 163.578 39.9858 163.521 42.677 163.184"></path><path stroke="#000000" stroke-linecap="round" stroke-linejoin="round" stroke-width=".75" d="M114.649 174.147C119.057 175.439 123.981 178.916 127.36 181.747C127.505 181.867 127.609 182.029 127.659 182.211C127.708 182.393 127.7 182.586 127.635 182.763C127.571 182.94 127.453 183.092 127.298 183.2C127.144 183.307 126.959 183.364 126.771 183.363C117.271 183.353 110.621 183.263 102.964 183.248C102.683 183.248 102.404 183.191 102.146 183.078C101.888 182.965 101.656 182.801 101.465 182.594C101.274 182.387 101.128 182.143 101.036 181.877C100.944 181.611 100.908 181.329 100.931 181.048C101.14 178.696 101.638 176.378 102.413 174.148C106.411 175.297 110.651 175.297 114.649 174.147V174.147Z"></path><path stroke="#000000" stroke-linecap="round" stroke-linejoin="round" stroke-width=".75" d="M141.1 174.147C142.392 169.739 145.869 161.775 148.7 158.396C148.801 158.245 148.947 158.13 149.117 158.066C149.287 158.001 149.473 157.991 149.648 158.037C149.824 158.083 149.981 158.183 150.098 158.322C150.215 158.461 150.285 158.633 150.3 158.814C151.716 166.66 151 183.439 150.224 183.363H141.124C142.275 179.411 142.2 178.365 141.1 174.147Z"></path><path stroke="#000000" stroke-linecap="round" stroke-linejoin="round" stroke-width=".75" d="M141.1 174.147C129.795 174.812 118.813 173.254 111.213 171.947"></path><path stroke="#000000" stroke-linecap="round" stroke-linejoin="round" stroke-width=".75" d="M78.055 144.317C80.772 143.634 83.022 144.81 82.862 145.856C82.8279 146.068 82.7475 146.27 82.6265 146.447C82.5055 146.624 82.3469 146.773 82.162 146.882"></path><path stroke="#000000" stroke-linecap="round" stroke-linejoin="round" stroke-width=".75" d="M77.77 142.664C80.62 141.942 83.508 143.329 82.292 144.849"></path><path stroke="#000000" stroke-linecap="round" stroke-linejoin="round" stroke-width=".75" d="M73.153 153.779C74.9401 151.359 77.3867 149.505 80.2 148.44"></path><path stroke="#000000" stroke-linecap="round" stroke-linejoin="round" stroke-width=".75" d="M77.979 146.274C80.62 145.704 82.387 146.692 82.292 147.737C82.178 148.991 79.692 150.949 77.542 149.77"></path><path stroke="#000000" stroke-linecap="round" stroke-linejoin="round" stroke-width=".75" d="M68.042 146.084C69.258 144.83 75.856 139.221 76.307 139.662C76.807 140.151 75.68 141.734 75.68 141.734"></path><path stroke="#000000" stroke-linecap="round" stroke-linejoin="round" stroke-width=".75" d="M68.042 146.084C70.1442 144.36 72.5035 142.977 75.034 141.984C78.1565 140.764 81.2133 139.381 84.192 137.843C85.092 137.313 83.85 140.104 79.138 142.459"></path><path stroke="#000000" stroke-linecap="round" stroke-linejoin="round" stroke-width=".75" d="M124.225 55.777H169.331"></path><path stroke="#000000" stroke-linecap="round" stroke-linejoin="round" stroke-width=".75" d="M35.457 55.777H80.563"></path><path stroke="#000000" stroke-linecap="round" stroke-linejoin="round" stroke-width=".75" d="M50.657 46.581C50.657 47.0883 50.5066 47.5842 50.2247 48.006C49.9429 48.4278 49.5423 48.7566 49.0736 48.9507C48.6049 49.1449 48.0892 49.1957 47.5916 49.0967C47.094 48.9977 46.637 48.7534 46.2783 48.3947C45.9196 48.036 45.6753 47.579 45.5763 47.0814C45.4773 46.5838 45.5281 46.0681 45.7222 45.5994C45.9164 45.1307 46.2452 44.7301 46.667 44.4483C47.0888 44.1664 47.5847 44.016 48.092 44.016C48.7722 44.0163 49.4245 44.2866 49.9054 44.7676C50.3864 45.2485 50.6567 45.9008 50.657 46.581Z"></path><path stroke="#000000" stroke-linecap="round" stroke-linejoin="round" stroke-width=".75" d="M58.428 46.581C58.428 47.0883 58.2776 47.5842 57.9957 48.006C57.7139 48.4278 57.3133 48.7566 56.8446 48.9507C56.3759 49.1449 55.8602 49.1957 55.3626 49.0967C54.865 48.9977 54.408 48.7534 54.0493 48.3947C53.6906 48.036 53.4463 47.579 53.3473 47.0814C53.2483 46.5838 53.2991 46.0681 53.4932 45.5994C53.6874 45.1307 54.0162 44.7301 54.438 44.4483C54.8598 44.1664 55.3557 44.016 55.863 44.016C56.5432 44.0163 57.1955 44.2866 57.6764 44.7676C58.1574 45.2485 58.4277 45.9008 58.428 46.581Z"></path><path stroke="#000000" stroke-linecap="round" stroke-linejoin="round" stroke-width=".75" d="M66.237 46.581C66.237 47.0883 66.0866 47.5842 65.8047 48.006C65.5229 48.4278 65.1223 48.7566 64.6536 48.9507C64.1849 49.1449 63.6692 49.1957 63.1716 49.0967C62.674 48.9977 62.217 48.7534 61.8583 48.3947C61.4995 48.036 61.2553 47.579 61.1563 47.0814C61.0573 46.5838 61.1081 46.0681 61.3022 45.5994C61.4964 45.1307 61.8251 44.7301 62.247 44.4483C62.6688 44.1664 63.1647 44.016 63.672 44.016C64.3522 44.0163 65.0045 44.2866 65.4854 44.7676C65.9664 45.2485 66.2367 45.9008 66.237 46.581Z"></path><path stroke="#000000" stroke-linecap="round" stroke-linejoin="round" stroke-width=".75" d="M49.042 147.7L58.504 135.73C62.5594 136.701 66.1244 139.111 68.536 142.513L66.294 145.553"></path><path stroke="#000000" stroke-linecap="round" stroke-linejoin="round" stroke-width=".75" d="M68.574 135.919C69.809 130.637 70.851 126.419 71.082 125.127C71.719 121.573 70.782 121.653 69.372 124.652C67.4183 129.143 64.537 133.171 60.917 136.47"></path><path stroke="#000000" stroke-linecap="round" stroke-linejoin="round" stroke-width=".75" d="M70.854 126.192C71.8265 125.27 72.9195 124.484 74.103 123.855C74.446 123.704 75.036 123.914 73.552 125.655C72.566 126.815 70.759 129.155 69.923 130.291"></path><path stroke="#000000" stroke-linecap="round" stroke-linejoin="round" stroke-width=".75" d="M68.84 134.7C69.9682 134.403 71.0784 134.041 72.165 133.616C73.512 133.174 74.783 132.7 71.975 135.44C70.2578 137.148 68.6878 138.997 67.282 140.969"></path><path stroke="#000000" stroke-linecap="round" stroke-linejoin="round" stroke-width=".75" d="M114.3 102.784C114.254 102.297 114.044 101.839 113.704 101.487C113.364 101.135 112.914 100.908 112.429 100.845L92.818 97.824C91.811 97.672 91.018 98.224 91.032 99.079L91.222 114.849L78.435 123.3C77.675 123.775 78.112 124.934 79.176 125.238L99.05 130.838C99.3112 130.927 99.5894 130.955 99.863 130.918C100.137 130.882 100.398 130.783 100.627 130.629L114.297 120.084L114.3 102.784Z"></path><path stroke="#000000" stroke-linecap="round" stroke-linejoin="round" stroke-width=".75" d="M114.297 120.092L91.222 114.849"></path><path stroke="#000000" stroke-linecap="round" stroke-linejoin="round" stroke-width=".75" d="M111.628 117.147C111.97 117.224 112.303 117.052 112.303 116.747V103.714C112.292 103.556 112.226 103.406 112.117 103.292C112.007 103.177 111.861 103.105 111.703 103.087L93.767 100.237C93.7003 100.217 93.63 100.213 93.5615 100.225C93.4929 100.236 93.4279 100.263 93.3712 100.303C93.3145 100.343 93.2677 100.396 93.2342 100.457C93.2007 100.518 93.1815 100.586 93.178 100.655L93.292 112.474C93.3093 112.623 93.374 112.763 93.4767 112.872C93.5793 112.982 93.7144 113.055 93.862 113.082L111.628 117.147Z"></path><path stroke="#000000" stroke-linecap="round" stroke-linejoin="round" stroke-width=".75" d="M64.85 112.074H21.169V80.154H64.85V112.074Z"></path><path stroke="#000000" stroke-linecap="round" stroke-linejoin="round" stroke-width=".75" d="M91.184 112.074H80.563V80.154H124.225V112.074H114.326"></path><path stroke="#000000" stroke-linecap="round" stroke-linejoin="round" stroke-width=".75" d="M183.6 112.074H139.938V80.154H183.6V112.074Z"></path><path stroke="#000000" stroke-linecap="round" stroke-linejoin="round" stroke-width=".75" d="M124.225 65.259H80.563V42.306H124.225V65.259Z"></path><path stroke="#000000" stroke-linecap="round" stroke-linejoin="round" stroke-width=".75" d="M102.394 65.259V80.154"></path><path stroke="#000000" stroke-linecap="round" stroke-linejoin="round" stroke-width=".75" d="M113.965 65.259V72.706H161.769V80.154"></path><path stroke="#000000" stroke-linecap="round" stroke-linejoin="round" stroke-width=".75" d="M91.583 65.259V72.706H43.019V80.154"></path><path stroke="#000000" stroke-linecap="round" stroke-linejoin="round" stroke-width=".75" d="M98.442 58.076L89.417 53.574L98.328 49.317"></path><path stroke="#000000" stroke-linecap="round" stroke-linejoin="round" stroke-width=".75" d="M106.46 58.114L115.371 53.535L106.346 49.355"></path><path stroke="#000000" stroke-linecap="round" stroke-linejoin="round" stroke-width=".75" d="M105.472 45.594L99.202 61.971"></path><path stroke="#000000" stroke-linecap="round" stroke-linejoin="round" stroke-width=".75" d="M55.787 91.535C56.1381 91.5418 56.487 91.4786 56.8133 91.3489C57.1397 91.2193 57.4369 91.0259 57.6876 90.78C57.9383 90.5342 58.1375 90.2408 58.2734 89.917C58.4094 89.5932 58.4794 89.2456 58.4794 88.8945C58.4794 88.5433 58.4094 88.1957 58.2734 87.872C58.1375 87.5482 57.9383 87.2548 57.6876 87.0089C57.4369 86.7631 57.1397 86.5697 56.8133 86.44C56.487 86.3104 56.1381 86.2471 55.787 86.254H29.947C29.5959 86.2471 29.247 86.3104 28.9207 86.44C28.5943 86.5697 28.2971 86.7631 28.0464 87.0089C27.7957 87.2548 27.5965 87.5482 27.4606 87.872C27.3246 88.1957 27.2546 88.5433 27.2546 88.8945C27.2546 89.2456 27.3246 89.5932 27.4606 89.917C27.5965 90.2408 27.7957 90.5342 28.0464 90.78C28.2971 91.0259 28.5943 91.2193 28.9207 91.3489C29.247 91.4786 29.5959 91.5418 29.947 91.535H55.787Z"></path><path stroke="#000000" stroke-linecap="round" stroke-linejoin="round" stroke-width=".75" d="M115.257 86.253C115.957 86.253 116.629 86.5312 117.124 87.0265C117.62 87.5218 117.898 88.1936 117.898 88.894C117.898 89.5944 117.62 90.2662 117.124 90.7615C116.629 91.2567 115.957 91.535 115.257 91.535H89.4C88.6996 91.535 88.0278 91.2567 87.5325 90.7615C87.0372 90.2662 86.759 89.5944 86.759 88.894C86.759 88.1936 87.0372 87.5218 87.5325 87.0265C88.0278 86.5312 88.6996 86.253 89.4 86.253H115.257Z"></path><path stroke="#000000" stroke-linecap="round" stroke-linejoin="round" stroke-width=".75" d="M45.508 95.6799C46.2107 95.6823 46.8836 95.9637 47.3788 96.4621C47.8741 96.9605 48.1511 97.6353 48.149 98.3379C48.1493 98.684 48.081 99.0268 47.9482 99.3464C47.8154 99.6659 47.6206 99.9561 47.375 100.2C47.1295 100.444 46.8381 100.637 46.5177 100.768C46.1973 100.898 45.8541 100.964 45.508 100.962H29.947C29.2466 100.962 28.5748 100.684 28.0795 100.188C27.5842 99.6931 27.306 99.0214 27.306 98.3209C27.306 97.6205 27.5842 96.9487 28.0795 96.4535C28.5748 95.9582 29.2466 95.6799 29.947 95.6799H45.508Z"></path><path stroke="#000000" stroke-linecap="round" stroke-linejoin="round" stroke-width=".75" d="M164.771 84.468C165.122 84.4611 165.471 84.5244 165.797 84.654C166.124 84.7836 166.421 84.977 166.672 85.2229C166.922 85.4688 167.121 85.7622 167.257 86.0859C167.393 86.4097 167.463 86.7573 167.463 87.1085C167.463 87.4596 167.393 87.8072 167.257 88.131C167.121 88.4548 166.922 88.7481 166.672 88.994C166.421 89.2399 166.124 89.4333 165.797 89.5629C165.471 89.6926 165.122 89.7558 164.771 89.749H149.628C149.277 89.7558 148.928 89.6926 148.602 89.5629C148.275 89.4333 147.978 89.2399 147.727 88.994C147.477 88.7481 147.278 88.4548 147.142 88.131C147.006 87.8072 146.936 87.4596 146.936 87.1085C146.936 86.7573 147.006 86.4097 147.142 86.0859C147.278 85.7622 147.477 85.4688 147.727 85.2229C147.978 84.977 148.275 84.7836 148.602 84.654C148.928 84.5244 149.277 84.4611 149.628 84.468H164.771Z"></path><path stroke="#000000" stroke-linecap="round" stroke-linejoin="round" stroke-width=".75" d="M171.915 93.891C172.607 93.9044 173.265 94.1887 173.75 94.6826C174.234 95.1765 174.506 95.8407 174.506 96.5325C174.506 97.2243 174.234 97.8885 173.75 98.3824C173.265 98.8763 172.607 99.1605 171.915 99.174H149.628C148.936 99.1605 148.278 98.8763 147.793 98.3824C147.309 97.8885 147.037 97.2243 147.037 96.5325C147.037 95.8407 147.309 95.1765 147.793 94.6826C148.278 94.1887 148.936 93.9044 149.628 93.891H171.915Z"></path><path stroke="#000000" stroke-linecap="round" stroke-linejoin="round" stroke-width=".75" d="M89.607 68.564L91.621 65.259L93.502 68.659"></path><path stroke="#000000" stroke-linecap="round" stroke-linejoin="round" stroke-width=".75" d="M100.399 68.564L102.413 65.259L104.275 68.659"></path><path stroke="#000000" stroke-linecap="round" stroke-linejoin="round" stroke-width=".75" d="M112.027 68.564L114.041 65.259L115.903 68.659"></path><path stroke="#000000" stroke-linecap="round" stroke-linejoin="round" stroke-width=".75" d="M180.522 65.467L173.701 72.231"></path><path stroke="#000000" stroke-linecap="round" stroke-linejoin="round" stroke-width=".75" d="M180.503 72.25L173.72 65.449"></path><path stroke="#000000" stroke-linecap="round" stroke-linejoin="round" stroke-width=".75" d="M24.779 67.69L27.781 71.927L31.296 65.79"></path><path stroke="#000000" stroke-linecap="round" stroke-linejoin="round" stroke-width=".75" d="M41.974 137.079C39.6818 136.479 37.464 135.625 35.362 134.532"></path><path stroke="#000000" stroke-linecap="round" stroke-linejoin="round" stroke-width=".75" d="M102.755 17.91L98.822 19.202L101.102 21.254L98.1 24.617L99.715 26.061L102.717 22.698L104.997 24.731L106.688 16.618L102.755 17.91Z"></path><path stroke="#000000" stroke-linecap="round" stroke-linejoin="round" stroke-width=".75" d="M121.85 146.084C121.85 146.358 121.769 146.626 121.616 146.855C121.464 147.083 121.247 147.26 120.994 147.365C120.74 147.47 120.461 147.498 120.192 147.444C119.923 147.391 119.676 147.259 119.482 147.065C119.288 146.871 119.156 146.624 119.103 146.355C119.049 146.086 119.077 145.807 119.182 145.553C119.287 145.3 119.464 145.083 119.692 144.931C119.921 144.778 120.189 144.697 120.463 144.697C120.83 144.699 121.182 144.846 121.441 145.106C121.701 145.365 121.848 145.717 121.85 146.084Z"></path><path stroke="#000000" stroke-linecap="round" stroke-linejoin="round" stroke-width=".75" d="M5 183.362H195"></path><path stroke="#000000" stroke-linecap="round" stroke-linejoin="round" stroke-width=".75" d="M81.019 168.334L73.989 173.084"></path><path stroke="#000000" stroke-linecap="round" stroke-linejoin="round" stroke-width=".75" d="M77.979 168.162C83.378 168.412 88.7578 168.977 94.091 169.854"></path><path stroke="#000000" stroke-linecap="round" stroke-linejoin="round" stroke-width=".75" d="M82.482 161.589L81.209 159.745"></path></g></g></svg>