<svg xmlns="http://www.w3.org/2000/svg" fill="none" viewBox="0 0 400 400"><g transform="matrix(2,0,0,2,0,0)"><path fill="#4395fd" d="M124.3 68.916C122.837 70.569 117.8 76.116 116.225 78.226C106.092 63.49 104.097 61.926 96.085 61.926C82 62 67.341 67.107 55.483 74.483C47.617 79.383 46.971 81.836 46.059 89.436C45.38 94.7235 45.0127 100.046 44.959 105.377C45.311 102.845 61.204 103.37 61.204 106.289C61.242 101.482 61.679 90.272 61.945 87.726C62.99 87.346 64.396 86.833 65.935 86.301C68.7523 83.8162 71.4112 81.1573 73.896 78.34C74.8567 82.9783 75.4413 87.6866 75.644 92.419C82.163 89.292 90.268 88.904 97.437 90.367C97.532 90.101 97.646 89.816 97.737 89.55C97.7788 85.8787 97.563 82.209 97.091 78.568C99.201 81.916 107.08 92.789 110.091 95.744C114.991 100.57 119.191 100.133 123.923 94.604C128.01 89.8742 131.822 84.9134 135.34 79.746C135.988 72.615 128.84 67.73 124.3 68.916Z"></path><path fill="#4395fd" d="M122.743 166.063C121.911 164.956 121.506 163.587 121.603 162.206C118.045 161.455 114.406 161.155 110.773 161.313C110.105 165.513 109.701 169.484 109.386 171.613C110.26 168.801 136.556 176.591 137.126 180.049C137.268 175.061 126.544 171.056 122.743 166.063Z"></path><path fill="#4395fd" d="M37.49 156.278C32.677 157.287 29.79 158.153 27.724 158.615C31.049 158.615 32.797 185.785 29.491 188.179C34.378 186.123 34.027 175.126 35.991 170.547C36.2781 169.735 36.7701 169.011 37.4192 168.445C38.0683 167.879 38.8526 167.491 39.696 167.317C39.5682 163.542 38.823 159.813 37.49 156.278V156.278Z"></path><g><path fill="#000000" d="M162.472 42.886L112.046 30.9C108.74 30.292 106.821 31.679 105.871 34.149L102.165 43.692C103.234 52.242 103.132 56.167 102.337 57.139C101.653 57.975 100.076 58.374 98.176 58.089C98.3697 59.4122 98.6297 60.7249 98.955 62.022C99.6582 62.0817 100.357 62.1896 101.045 62.345L111.4 35.362L159.869 47.123L144.593 90.785L130.476 86.529C129.393 87.935 128.215 89.436 126.923 91.013L144.688 96.352C147.405 97.169 150.027 96.295 151.224 93.008L166.253 49.783C167.279 46.819 166.975 43.988 162.472 42.886ZM156.924 70.968C156.862 71.1924 156.755 71.4018 156.609 71.5832C156.463 71.7647 156.281 71.9145 156.076 72.0233C155.87 72.1321 155.644 72.1977 155.412 72.2161C155.18 72.2345 154.946 72.2053 154.726 72.1302C154.505 72.0552 154.303 71.9359 154.13 71.7796C153.957 71.6234 153.819 71.4335 153.722 71.2217C153.625 71.0099 153.573 70.7805 153.568 70.5477C153.563 70.315 153.606 70.0837 153.694 69.868C153.756 69.6436 153.863 69.4342 154.009 69.2528C154.155 69.0713 154.336 68.9216 154.542 68.8127C154.748 68.7039 154.974 68.6383 155.206 68.6199C155.438 68.6015 155.672 68.6307 155.892 68.7058C156.112 68.7809 156.315 68.9002 156.488 69.0564C156.66 69.2126 156.799 69.4025 156.896 69.6143C156.993 69.8261 157.045 70.0555 157.05 70.2883C157.055 70.5211 157.012 70.7524 156.924 70.968V70.968Z"></path><path fill="#000000" d="M129.374 59.568L133.592 64.185C131.407 65.135 129.013 63.2 129.374 59.568Z"></path><path fill="#000000" d="M135.378 58.124C134.846 57.991 133.668 57.782 132.278 57.573L135.378 60.955C135.454 60.0129 135.454 59.0661 135.378 58.124V58.124Z"></path><path fill="#000000" d="M121.622 162.187C124.89 162.947 125.764 163.973 125.764 164.733C125.764 165.702 124.164 166.044 122.764 166.044C121.937 164.935 121.532 163.568 121.622 162.187V162.187Z"></path><path fill="#000000" d="M110.773 161.313C110.526 162.985 110.317 164.372 110.165 165.569C107.923 165.132 106.491 164.181 106.574 163.137C106.644 162.262 107.828 161.522 110.773 161.313Z"></path><path fill="#000000" d="M34.279 153.067C35.155 152.845 36.369 153.618 37.49 156.297C35.49 156.734 33.975 157.097 32.74 157.397C32.436 155.062 33.274 153.321 34.279 153.067Z"></path><path fill="#000000" d="M39.694 167.317C38.8545 167.5 38.0748 167.892 37.4272 168.457C36.7795 169.021 36.2849 169.74 35.989 170.547C36.389 171.798 37.458 173.121 38.436 172.423C39.149 171.915 39.762 170.334 39.694 167.317Z"></path><path fill="#000000" d="M92.647 105.529C92.305 110.374 92.552 121.907 92.647 125.973C90.747 125.365 89.075 124.852 87.821 124.51C89.683 116.853 91.165 110.83 92.647 105.529Z"></path><path fill="#000000" d="M44.976 105.339C44.862 106.175 46.42 107.049 48.676 107.163C48.8793 107.008 49.0423 106.806 49.151 106.574C49.3257 105.66 49.3895 104.729 49.341 103.8C46.325 104.009 45.071 104.674 44.976 105.339Z"></path><path fill="#000000" d="M61.2 106.076C61.033 105.443 60.035 104.763 57.882 104.332C57.939 105.168 57.977 106.384 58.034 107.732C59.292 107.693 61.5 107.214 61.2 106.076Z"></path><path fill="#000000" d="M73.913 78.321C74.255 79.955 74.578 81.76 74.844 83.621C71.8437 84.3587 68.8823 85.2465 65.971 86.281C68.773 83.7866 71.425 81.1287 73.913 78.321V78.321Z"></path><path fill="#000000" d="M100.228 83.147C99.335 85.389 98.518 87.498 97.758 89.547C97.7994 85.8757 97.5835 82.2061 97.112 78.565C97.644 79.423 98.8 81.133 100.228 83.147Z"></path><path fill="#000000" d="M125.124 174.021C117.847 171.685 109.871 170.084 109.386 171.611C108.744 173.655 116.033 176.619 123.299 178.638C129.599 180.39 135.887 181.432 136.964 180.548C139.037 178.848 127.7 174.848 125.124 174.021Z"></path><path fill="#000000" d="M31.082 172.1C30.616 165.164 29.355 158.636 27.705 158.636C25.698 158.627 25.005 165.297 25.246 172.319C25.515 180.119 26.937 188.352 28.997 188.352C31.9 187.705 31.28 175.042 31.082 172.1Z"></path><path fill="#000000" d="M146.759 49.441C141.99 45.584 135.264 49.783 135.587 54.932C136.619 54.9548 137.637 55.1741 138.587 55.578C139.15 56.503 139.47 57.5552 139.518 58.637C140.164 59.815 140.677 60.784 141.095 61.62C147.424 63.539 153.029 54.5 146.759 49.441Z"></path><path fill="#000000" d="M127.17 57.174L125.67 55.54L124.378 51.55C119.457 49.441 111.178 53.64 111.515 61.962C111.815 69.201 118.868 72.146 122.515 70.968C123.294 70.094 123.94 69.368 124.339 68.916C124.766 68.7989 125.208 68.7476 125.65 68.764C125.84 65.211 125.308 63.292 125.308 61.487C125.308 60.765 126.163 59.435 127.17 57.174Z"></path><path fill="#000000" d="M173.511 109.538C168.501 108.557 163.315 109.039 158.573 110.928C153.83 112.818 149.732 116.033 146.77 120.19C143.807 124.348 142.105 129.271 141.867 134.37C141.63 139.469 142.866 144.529 145.429 148.944C159.584 140.09 169.35 125.878 173.511 109.538Z"></path><path fill="#000000" d="M169.92 24.608C165.455 20.352 169.73 16.096 168.001 11.65C173.112 13.683 176.57 18.908 174.271 23.829L169.92 24.608Z"></path><path fill="#000000" d="M98.024 55.483C100 56.908 101.824 57.839 102.432 56.946C101.843 58.124 100.608 58.466 98.214 58.086C98.119 57.212 98.062 56.338 98.024 55.483Z"></path><path fill="#000000" d="M104.674 35.457C103.61 34.108 101.767 33.291 98.936 33.595C100.19 23.24 85.427 21.758 84.857 30.422C77.314 24.551 65.192 33.652 73.723 39.922C69.087 40.207 67.548 46.344 72.507 46.344C61.069 54.153 70.075 71.538 94.813 55.044C96.1463 53.8982 97.3447 52.6042 98.385 51.187C96.276 48.318 98.632 46.513 99.506 48.565C100 49.743 100.551 47.938 100.551 46.475C101.247 46.5162 101.927 46.6972 102.551 47.007C105.4 45.356 107.3 38.763 104.674 35.457Z"></path></g><g><path stroke="#000000" stroke-linecap="round" stroke-linejoin="round" stroke-width=".75" d="M169.92 24.608C165.455 20.352 169.73 16.096 168.001 11.65C173.112 13.683 176.57 18.908 174.271 23.829L169.92 24.608Z"></path><path stroke="#000000" stroke-linecap="round" stroke-linejoin="round" stroke-width=".75" d="M7.698 151.338L20.314 133.326"></path><path stroke="#000000" stroke-linecap="round" stroke-linejoin="round" stroke-width=".75" d="M5 136.024L23.012 148.64"></path><path stroke="#000000" stroke-linecap="round" stroke-linejoin="round" stroke-width=".75" d="M127.721 110.013L139.881 107.866"></path><path stroke="#000000" stroke-linecap="round" stroke-linejoin="round" stroke-width=".75" d="M132.737 102.869L134.865 115.029"></path><path stroke="#000000" stroke-linecap="round" stroke-linejoin="round" stroke-width=".75" d="M168.419 162.206C183.099 162.206 195 150.305 195 135.625C195 120.945 183.099 109.044 168.419 109.044C153.739 109.044 141.838 120.945 141.838 135.625C141.838 150.305 153.739 162.206 168.419 162.206Z"></path><path stroke="#000000" stroke-linecap="round" stroke-linejoin="round" stroke-width=".75" d="M32.835 79.499C38.8372 79.499 43.703 74.6332 43.703 68.631C43.703 62.6288 38.8372 57.763 32.835 57.763C26.8327 57.763 21.967 62.6288 21.967 68.631C21.967 74.6332 26.8327 79.499 32.835 79.499Z"></path><path stroke="#000000" stroke-linecap="round" stroke-linejoin="round" stroke-width=".75" d="M79.86 156.6C88.6566 158.368 97.6234 159.145 106.593 158.918"></path><path stroke="#000000" stroke-linecap="round" stroke-linejoin="round" stroke-width=".75" d="M125.764 156.981C171.497 146.835 191.124 91.165 162.149 47.123C150.749 29.8 124.377 15.084 101.672 13.7C78.188 12.27 70.322 20.578 69.543 31.655C68.707 43.549 62.189 47.048 48.757 43.055C22.957 35.385 -4.46201 54.911 11.612 98.991C19.2402 120.531 34.9834 138.238 55.483 148.334"></path><path stroke="#000000" stroke-linecap="round" stroke-linejoin="round" stroke-width=".75" d="M38.345 20.048L13.245 24.475C12.2751 24.6623 11.4177 25.2234 10.858 26.0373C10.2982 26.8512 10.0809 27.8526 10.253 28.8253C10.4251 29.798 10.9728 30.6641 11.7778 31.2365C12.5829 31.8089 13.5807 32.0419 14.556 31.885L39.656 27.458L46.8 22.366L38.345 20.048Z"></path><path stroke="#000000" stroke-linecap="round" stroke-linejoin="round" stroke-width=".75" d="M14.424 24.266L15.735 31.676"></path><path stroke="#000000" stroke-linecap="round" stroke-linejoin="round" stroke-width=".75" d="M18.68 23.525L19.972 30.935"></path><path stroke="#000000" stroke-linecap="round" stroke-linejoin="round" stroke-width=".75" d="M38.345 20.048L39.656 27.458"></path><path stroke="#000000" stroke-linecap="round" stroke-linejoin="round" stroke-width=".75" d="M169.92 24.608C169.996 27.9696 170.307 31.3218 170.851 34.64C172.577 44.448 175.772 54.78 177.425 54.495C179.078 54.21 178.556 43.395 176.817 33.595C176.201 30.2896 175.35 27.0323 174.271 23.848L169.92 24.608Z"></path><path stroke="#000000" stroke-linecap="round" stroke-linejoin="round" stroke-width=".75" d="M170.642 33.424L176.608 32.379"></path><path stroke="#000000" stroke-linecap="round" stroke-linejoin="round" stroke-width=".75" d="M48.681 107.182C46.42 107.068 44.866 106.194 44.981 105.358C45.099 104.465 47.242 103.593 52.752 103.758C58.984 103.95 61.291 105.24 61.245 106.285C61.213 107.026 59.877 107.653 58.053 107.71"></path><path stroke="#000000" stroke-linecap="round" stroke-linejoin="round" stroke-width=".75" d="M116.245 78.207C117.822 76.098 122.857 70.569 124.32 68.897C127.873 67.928 135.967 71.576 135.34 79.746C131.816 84.9079 128.003 89.8671 123.921 94.6C119.178 100.118 115.013 100.582 110.089 95.74C106.918 92.622 98.822 81.34 97.112 78.564C97.584 82.205 97.7999 85.8747 97.758 89.546"></path><path stroke="#000000" stroke-linecap="round" stroke-linejoin="round" stroke-width=".75" d="M118.183 81.057C106.118 63.311 104.351 61.905 96.105 61.905C83.242 61.905 68.268 66.481 55.505 74.464C47.638 79.383 47.027 81.84 46.081 89.417C45.4127 94.7055 45.0455 100.028 44.981 105.358"></path><path stroke="#000000" stroke-linecap="round" stroke-linejoin="round" stroke-width=".75" d="M100.228 83.128C92.951 101.273 91.039 111.212 81.418 151.428C79.6 159.052 77.6 162.825 68.688 165.4C59.376 168.09 40.796 171.841 38.098 172.563"></path><path stroke="#000000" stroke-linecap="round" stroke-linejoin="round" stroke-width=".75" d="M32.74 157.38C32.44 155.08 33.272 153.331 34.279 153.067C35.589 152.723 37.663 154.644 39.029 161.731C40.475 169.231 39.329 172.287 38.098 172.58C37.318 172.765 36.426 171.915 35.989 170.547"></path><path stroke="#000000" stroke-linecap="round" stroke-linejoin="round" stroke-width=".75" d="M34.279 153.067C40.929 151.585 65.192 146.167 66.845 145.79"></path><path stroke="#000000" stroke-linecap="round" stroke-linejoin="round" stroke-width=".75" d="M97.454 90.367C84.382 87.707 69.7 91.3 65 103.724C60.879 114.631 62.15 128.386 63.2 146.588"></path><path stroke="#000000" stroke-linecap="round" stroke-linejoin="round" stroke-width=".75" d="M72.735 73.78C74.4305 79.8584 75.4125 86.1135 75.661 92.419"></path><path stroke="#000000" stroke-linecap="round" stroke-linejoin="round" stroke-width=".75" d="M61.221 106.289C61.259 101.501 61.696 90.253 61.962 87.707C66.1719 86.1114 70.4659 84.7477 74.825 83.622"></path><path stroke="#000000" stroke-linecap="round" stroke-linejoin="round" stroke-width=".75" d="M27.724 158.634C31.201 158.642 32.968 188.369 29.016 188.35C25.064 188.331 23.487 158.624 27.724 158.634Z"></path><path stroke="#000000" stroke-linecap="round" stroke-linejoin="round" stroke-width=".75" d="M27.724 158.634C29.924 158.14 31.79 157.534 37.49 156.278"></path><path stroke="#000000" stroke-linecap="round" stroke-linejoin="round" stroke-width=".75" d="M39.713 167.317C36.977 168.117 35.644 169.428 34.583 176.551C33.853 181.451 32.493 187.457 29.016 188.351"></path><path stroke="#000000" stroke-linecap="round" stroke-linejoin="round" stroke-width=".75" d="M110.165 165.569C107.923 165.132 106.508 164.181 106.574 163.156C106.658 161.844 109.14 160.843 116.169 161.408C123.998 162.038 125.745 163.65 125.745 164.733C125.745 165.702 124.145 166.044 122.745 166.044"></path><path stroke="#000000" stroke-linecap="round" stroke-linejoin="round" stroke-width=".75" d="M109.386 171.611C110.298 168.704 138.186 177.083 137.107 180.351C136.27 182.878 108.152 175.544 109.386 171.611Z"></path><path stroke="#000000" stroke-linecap="round" stroke-linejoin="round" stroke-width=".75" d="M109.386 171.611C109.709 169.426 109.937 166.937 110.773 161.311"></path><path stroke="#000000" stroke-linecap="round" stroke-linejoin="round" stroke-width=".75" d="M121.622 162.187C121.603 164.999 122.422 166.711 128.291 170.887C132.891 174.157 137.506 176.872 137.107 180.349"></path><path stroke="#000000" stroke-linecap="round" stroke-linejoin="round" stroke-width=".75" d="M94.528 99.088C102.426 104.12 110.037 109.588 117.328 115.466C124.981 121.836 125.764 124.206 125.764 135.245V164.733"></path><path stroke="#000000" stroke-linecap="round" stroke-linejoin="round" stroke-width=".75" d="M106.574 163.156C106.707 155.537 106.764 133.456 106.574 130.628C100.836 128.652 91.944 125.669 87.821 124.528"></path><path stroke="#000000" stroke-linecap="round" stroke-linejoin="round" stroke-width=".75" d="M91.507 89.607C83.85 99.088 79.024 121.014 74.825 152.117C63.102 155.803 45.356 159.926 38.934 161.256"></path><path stroke="#000000" stroke-linecap="round" stroke-linejoin="round" stroke-width=".75" d="M57.9 104.294C58.052 107.277 58.356 114.994 57.957 116.435C57.558 117.876 53.285 124.91 50.737 127.911C49.123 129.811 47.137 130.244 49.179 126.296C50.3806 123.938 51.4165 121.498 52.279 118.996C54.701 112.101 49.579 110.619 47.529 113.087C44.397 116.851 42.051 117.797 43.292 114.835C44.049 113.029 44.451 111.947 44.983 110.579C45.515 109.211 48.935 107.425 49.163 106.627C49.3458 105.714 49.4096 104.782 49.353 103.853"></path><path stroke="#000000" stroke-linecap="round" stroke-linejoin="round" stroke-width=".75" d="M51.037 122.23C49.4642 123.835 47.6885 125.227 45.755 126.372C43.398 127.753 42.582 126.467 45.355 123.883C47.2938 122.082 49.042 120.086 50.572 117.927"></path><path stroke="#000000" stroke-linecap="round" stroke-linejoin="round" stroke-width=".75" d="M48.947 116.549C49.9286 117.523 51.0529 118.341 52.281 118.976"></path><path stroke="#000000" stroke-linecap="round" stroke-linejoin="round" stroke-width=".75" d="M48.32 120.786C46.5176 121.682 44.6087 122.346 42.639 122.762C40.075 123.299 40.418 121.798 43.133 120.653C45.3144 119.621 47.3837 118.366 49.308 116.91"></path><path stroke="#000000" stroke-linecap="round" stroke-linejoin="round" stroke-width=".75" d="M45.793 119.266C44.4121 119.494 43.0105 119.57 41.613 119.494C39.751 119.266 39.218 118.178 42.05 117.746C44.2778 117.425 46.4435 116.765 48.472 115.789C48.6917 114.411 49.2031 113.096 49.972 111.932"></path><path stroke="#000000" stroke-linecap="round" stroke-linejoin="round" stroke-width=".75" d="M92.666 125.973C92.571 121.85 92.324 110.089 92.666 105.358"></path><path stroke="#000000" stroke-linecap="round" stroke-linejoin="round" stroke-width=".75" d="M65.952 86.282C68.7694 83.7972 71.4282 81.1383 73.913 78.321"></path><path stroke="#000000" stroke-linecap="round" stroke-linejoin="round" stroke-width=".75" d="M127.17 57.155L125.67 55.521L124.378 51.55L128.235 53.165L146.3 72.792C146.612 73.1296 146.778 73.5775 146.76 74.0372C146.742 74.4968 146.543 74.9306 146.205 75.243C145.867 75.5554 145.419 75.7209 144.96 75.7031C144.5 75.6853 144.066 75.4856 143.754 75.148L129.409 59.548"></path><path stroke="#000000" stroke-linecap="round" stroke-linejoin="round" stroke-width=".75" d="M143.567 69.828C142.961 69.9394 142.398 70.2195 141.944 70.6363C141.49 71.0531 141.163 71.5895 141 72.184"></path><path stroke="#000000" stroke-linecap="round" stroke-linejoin="round" stroke-width=".75" d="M144.593 70.949C143.987 71.0607 143.425 71.341 142.971 71.7577C142.518 72.1745 142.191 72.7108 142.028 73.305"></path><path stroke="#000000" stroke-linecap="round" stroke-linejoin="round" stroke-width=".75" d="M125.631 68.745C125.821 65.192 125.289 63.273 125.289 61.468C125.289 60.632 126.449 58.941 127.683 55.901C128.501 53.887 130.113 55.179 129.45 58.884C128.726 62.931 131.274 65.192 133.611 64.147"></path><path stroke="#000000" stroke-linecap="round" stroke-linejoin="round" stroke-width=".75" d="M132.281 57.554C133.668 57.763 134.846 57.972 135.381 58.105C135.457 59.0471 135.457 59.9938 135.381 60.936"></path><path stroke="#000000" stroke-linecap="round" stroke-linejoin="round" stroke-width=".75" d="M129.45 54.5C132.034 54.614 137.962 54.956 138.589 55.583C139.539 56.533 139.767 61.169 139.881 62.803"></path><path stroke="#000000" stroke-linecap="round" stroke-linejoin="round" stroke-width=".75" d="M139.52 58.637C142.845 64.66 142.883 65.477 141.439 67.51"></path><path stroke="#000000" stroke-linecap="round" stroke-linejoin="round" stroke-width=".75" d="M139.33 70.4C137.525 72.718 135.43 74.846 134.979 76.005"></path><path stroke="#000000" stroke-linecap="round" stroke-linejoin="round" stroke-width=".75" d="M94.838 55.029C96.1682 53.8881 97.3646 52.5999 98.404 51.189C96.314 48.32 98.643 46.519 99.525 48.567C100.033 49.747 100.57 47.94 100.57 46.477C101.265 46.5207 101.945 46.7015 102.57 47.009C106.579 44.672 108.726 32.569 98.941 33.576C100.19 23.221 85.408 21.758 84.857 30.4C77.314 24.548 65.192 33.668 73.723 39.919C69.087 40.204 67.548 46.341 72.507 46.341C61.046 54.156 70.081 71.569 94.838 55.029Z"></path><path stroke="#000000" stroke-linecap="round" stroke-linejoin="round" stroke-width=".75" d="M83.755 63.159C89.664 59.777 96.599 53.959 98.404 51.189"></path><path stroke="#000000" stroke-linecap="round" stroke-linejoin="round" stroke-width=".75" d="M98.765 61.981C98.512 60.681 98.322 59.381 98.191 58.07C103.839 58.97 103.021 55.941 102.546 47.009"></path><path stroke="#000000" stroke-linecap="round" stroke-linejoin="round" stroke-width=".75" d="M98.191 58.07C98.104 57.209 98.043 56.35 98.005 55.483C99.981 56.927 101.805 57.839 102.413 56.927"></path></g></g></svg>